<svg width="41" height="38" viewBox="0 0 41 38" fill="none" xmlns="http://www.w3.org/2000/svg">
<path d="M25.9805 10.7496C26.469 7.89944 30.0947 5.4325 33.6569 5.11649C35.512 4.97119 37.3158 5.1259 38.9456 5.40522C38.9456 5.40522 35.3138 8.79761 34.6968 12.3978C34.4336 14.8234 32.3214 16.4688 29.9249 16.2125C29.7768 16.1871 29.6286 16.1617 29.6286 16.1617C27.2579 15.7554 25.5434 13.2998 25.9805 10.7496Z" stroke="#E3878E" stroke-width="3" stroke-linecap="round" stroke-linejoin="round"/>
<path d="M25.1781 11.4495L14.1496 19.2876L3.12122 27.1257C2.07795 27.8734 2.68817 30.0747 3.44864 30.9771C4.20911 31.8796 5.69603 32.527 6.56542 31.9039L17.5938 24.0658L28.6223 16.2276" stroke="#E3878E" stroke-width="3" stroke-linecap="round" stroke-linejoin="round"/>
</svg>
