<svg width="36" height="40" viewBox="0 0 36 40" fill="none" xmlns="http://www.w3.org/2000/svg">
<path d="M24.137 34.1002C30.1651 31.3689 32.8462 24.2454 30.1149 18.2173C28.701 15.0967 26.0674 12.7878 22.7992 11.7633L20.6936 7.11604C20.4747 6.63289 20.0728 6.25649 19.5764 6.06964C19.0799 5.8828 18.5296 5.90081 18.0465 6.11972L17.221 4.29799C17.0021 3.81484 16.6003 3.43844 16.1038 3.25159C15.6074 3.06475 15.0571 3.08276 14.5739 3.30168L7.28698 6.60332C6.80383 6.82223 6.42743 7.22411 6.24058 7.72054C6.05374 8.21698 6.07175 8.7673 6.29067 9.25046L7.11608 11.0722C6.63292 11.2911 6.25652 11.693 6.06968 12.1894C5.88283 12.6858 5.90084 13.2362 6.11976 13.7193L8.22538 18.3666C7.53788 19.9017 7.18488 21.5655 7.18985 23.2475C7.19481 24.9295 7.55762 26.5912 8.25417 28.1223C10.9855 34.1504 18.1089 36.8314 24.137 34.1002ZM12.6975 18.5448L10.5886 13.8902L17.8755 10.5886L19.9845 15.2431C22.7243 15.5233 25.2523 17.1775 26.4715 19.8681C27.3471 21.8008 27.4192 24.0021 26.6718 25.9878C25.9244 27.9735 24.4188 29.5811 22.4862 30.4567C20.5536 31.3324 18.3523 31.4044 16.3665 30.657C14.3808 29.9096 12.7733 28.404 11.8976 26.4714C10.6785 23.7807 11.1017 20.7894 12.6975 18.5448Z" fill="#AFAFAF"/>
</svg>
