<svg width="39" height="41" viewBox="0 0 39 41" fill="none" xmlns="http://www.w3.org/2000/svg">
<path d="M28.0938 33.375L33.4545 18.771C33.6372 18.2732 33.6146 17.7231 33.3918 17.2418C33.169 16.7606 32.7641 16.3875 32.2663 16.2047L9.69655 7.91992C9.19867 7.73725 8.64861 7.7598 8.16734 7.98261C7.68608 8.20543 7.31301 8.61027 7.13018 9.1081L3.71881 18.4015C3.53597 18.8994 3.55838 19.4495 3.78112 19.9309L7.14229 27.1908C7.36524 27.6721 7.77022 28.0451 8.26817 28.2278L25.5274 34.5632C26.0253 34.7459 26.5753 34.7233 27.0566 34.5005C27.5379 34.2777 27.9109 33.8728 28.0938 33.375ZM10.4244 24.7588L7.75894 19.0017L10.1956 12.3636L17.726 15.1277L13.7434 25.9772L10.4244 24.7588ZM17.498 27.3554L21.4805 16.5059L29.0108 19.2701L25.0283 30.1195L17.498 27.3554Z" fill="#A9DAD4"/>
</svg>
