<svg width="41" height="41" viewBox="0 0 41 41" fill="none" xmlns="http://www.w3.org/2000/svg">
<path d="M6.40629 8.99037L2.73908 16.6425C2.50996 17.1208 2.48017 17.6706 2.65628 18.1708C2.83238 18.6711 3.19996 19.0809 3.67818 19.3102L31.7357 32.7575C32.2134 32.9859 32.7622 33.0154 33.2616 32.8395L38.9219 30.8491C39.1698 30.762 39.3983 30.627 39.594 30.4516C39.7898 30.2763 39.9491 30.0641 40.0628 29.8271C40.1765 29.5902 40.2424 29.3331 40.2567 29.0707C40.271 28.8083 40.2334 28.5456 40.1461 28.2977L38.1512 22.6366C38.064 22.3889 37.9288 22.1607 37.7534 21.9652C37.578 21.7698 37.3658 21.6108 37.1289 21.4974L9.07198 8.05197C8.59397 7.82337 8.0448 7.7938 7.54502 7.96974C7.04523 8.14568 6.63569 8.51275 6.40629 8.99037ZM34.6562 24.749L35.7089 27.7393L32.7187 28.7919L13.5886 19.6233L15.5254 15.5785L34.6556 24.7471L34.6562 24.749ZM11.9188 13.8499L9.98004 17.8954L7.20999 16.5678L9.14872 12.5223L11.9188 13.8499Z" fill="#6AC1F2"/>
</svg>
