<svg width="43" height="43" viewBox="0 0 43 43" fill="none" xmlns="http://www.w3.org/2000/svg">
<path d="M40.203 24.8969L29.0655 21.1926C29.3871 18.1419 28.5705 15.0798 26.7724 12.5942C24.9743 10.1086 22.3216 8.37484 19.3236 7.7259C16.3257 7.07697 13.194 7.55861 10.5298 9.07831C7.86573 10.598 5.85709 13.0486 4.88969 15.9595C3.92229 18.8704 4.06434 22.0364 5.28856 24.8493C6.51277 27.6622 8.73284 29.9239 11.5224 31.1998C14.3119 32.4758 17.4743 32.6761 20.4021 31.7623C23.3299 30.8485 25.8168 28.8851 27.385 26.249L38.5226 29.9533C39.1931 30.1758 39.9244 30.1231 40.5559 29.8067C41.1875 29.4904 41.6676 28.9362 41.8908 28.2659C42.0034 27.934 42.0489 27.5831 42.0248 27.2334C42.0008 26.8837 41.9075 26.5423 41.7505 26.2289C41.5935 25.9155 41.3759 25.6364 41.1103 25.4078C40.8446 25.1791 40.5362 25.0055 40.203 24.8969ZM8.76221 23.8693C7.97491 22.2978 7.6712 20.5282 7.88947 18.7842C8.10775 17.0402 8.83821 15.4003 9.98849 14.0717C11.1388 12.7431 12.6572 11.7855 14.3518 11.3201C16.0463 10.8547 17.8409 10.9024 19.5086 11.457C21.1763 12.0117 22.6421 13.0485 23.7208 14.4362C24.7995 15.824 25.4426 17.5004 25.5687 19.2536C25.6948 21.0067 25.2983 22.7577 24.4293 24.2853C23.5603 25.8128 22.2579 27.0483 20.6868 27.8354C18.5799 28.8909 16.14 29.066 13.9037 28.3222C11.6674 27.5784 9.81794 25.9767 8.76221 23.8693Z" fill="#87DD79"/>
</svg>
