<svg width="134" height="152" viewBox="0 0 134 152" fill="none" xmlns="http://www.w3.org/2000/svg">
<path d="M15.9877 93.5991L0.438795 111.303C0.344663 111.417 0.28797 111.558 0.27646 111.705C0.26495 111.852 0.299172 112 0.374464 112.127C0.449756 112.254 0.562463 112.355 0.697216 112.416C0.831969 112.477 0.982231 112.495 1.12751 112.467L24.3646 107.849L15.9877 93.5991Z" fill="#FFA8A7"/>
<path d="M1.11956 112.479C0.974279 112.506 0.824017 112.488 0.689263 112.427C0.55451 112.366 0.441803 112.265 0.366511 112.138C0.291218 112.011 0.256997 111.864 0.268507 111.716C0.280017 111.569 0.336709 111.428 0.430842 111.314L3.48856 107.858C3.50864 108.586 3.72947 109.295 4.12671 109.906C4.52396 110.517 5.08218 111.007 5.73988 111.321L6.09337 111.526L1.11956 112.479Z" fill="#C4FB28"/>
<path d="M110.462 58.2195L108.572 59.3026L106.28 60.6173L24.3433 107.844C21.7633 107.213 19.5161 105.632 18.05 103.418C15.7062 100.153 14.7744 95.9312 15.9821 93.5809L97.8801 46.4077L102.235 43.8967C99.502 45.6801 107.696 59.9682 110.462 58.2195Z" fill="#37474F"/>
<path d="M103.283 62.3837L99.061 64.8114C97.8636 65.5571 95.5708 63.3982 93.5675 60.5452C90.9022 56.7573 89.2869 51.428 90.8782 50.4383L93.9897 48.6465L95.1141 48.0262C93.5228 49.0159 95.1291 54.3476 97.8034 58.1331C99.7259 60.8627 101.916 62.9619 103.146 62.4489C103.197 62.44 103.244 62.4175 103.283 62.3837Z" fill="#EBEBEB"/>
<path d="M102.224 62.9817C99.4388 64.7114 91.2551 50.353 94.0495 48.6209L98.2635 46.1808C95.4839 47.9139 103.643 62.2885 106.442 60.5359L102.224 62.9817Z" fill="#C4FB28"/>
<path d="M110.463 58.2195L106.298 60.6272C103.573 62.3459 95.5685 48.5577 97.881 46.4076C97.9214 46.3609 97.9699 46.3219 98.0243 46.2926L102.236 43.8967C99.5029 45.68 107.697 59.9682 110.463 58.2195Z" fill="#EBEBEB"/>
<path opacity="0.15" d="M0.393511 112.178L0.437324 111.303L16.8076 101.42L103.472 51.4872C103.333 51.2152 103.382 51.0912 103.589 51.0896C105.672 55.1568 108.921 59.2005 110.467 58.2227L108.577 59.3058L106.285 60.6205L24.3484 107.847L1.11131 112.466C0.97657 112.5 0.834669 112.49 0.705785 112.438C0.576901 112.387 0.467611 112.296 0.393511 112.178Z" fill="black"/>
<path d="M128.143 48.0002L110.463 58.2196C109.269 58.9596 107.003 56.8467 105.003 54.0264C102.326 50.2466 100.669 44.9088 102.235 43.8968L119.975 33.628C123.516 31.5975 128.505 38.2646 129.489 43.3942C129.886 45.3203 129.546 47.0459 128.143 48.0002Z" fill="#F28F8F"/>
<path opacity="0.1" d="M122.863 46.1479C119.919 43.2588 118.158 38.4937 118.931 35.5008C119.017 35.0455 119.211 34.6175 119.497 34.2524C119.782 33.8874 120.151 33.5961 120.572 33.4027C124.038 32.3666 128.566 38.5669 129.496 43.4211C129.87 45.2955 129.554 46.9664 128.209 47.954C126.879 48.6913 124.842 48.1243 122.863 46.1479Z" fill="black"/>
<path d="M91.1177 87.2764C91.1177 92.4655 89.2412 96.6429 85.4881 99.8086C81.7349 102.942 76.4806 104.818 69.7249 105.438V115.474H63.0183V105.634C55.0551 105.471 48.0711 104.068 42.0661 101.424V88.5003C44.9054 89.9036 48.3158 91.1438 52.2974 92.2208C56.3116 93.2978 59.8852 93.9342 63.0183 94.13V78.9543L59.7384 77.6815C53.2765 75.1359 48.6911 72.3782 45.9824 69.4083C43.3062 66.4058 41.9682 62.7016 41.9682 58.2958C41.9682 53.5636 43.8121 49.6799 47.4999 46.6448C51.2204 43.577 56.3932 41.7168 63.0183 41.0641V33.5741H69.7249V40.8683C77.1986 41.1946 83.9542 42.6959 89.9918 45.372L85.3902 56.8272C80.299 54.7385 75.0772 53.4657 69.7249 53.0088V67.4502C76.0889 69.8978 80.609 72.0192 83.2851 73.8141C85.9939 75.6091 87.9684 77.5836 89.2086 79.7376C90.4814 81.8915 91.1177 84.4045 91.1177 87.2764ZM76.3827 88.0107C76.3827 86.64 75.8279 85.4815 74.7182 84.535C73.6086 83.5886 71.9442 82.6095 69.7249 81.5978V93.7873C74.1634 93.0367 76.3827 91.1112 76.3827 88.0107ZM56.7032 58.2958C56.7032 59.7318 57.1928 60.923 58.1719 61.8694C59.1836 62.7832 60.799 63.7297 63.0183 64.7087V53.2046C58.8083 53.8247 56.7032 55.5218 56.7032 58.2958Z" fill="#F6BD2A"/>
<path d="M85.4881 99.8086L87.7457 102.513L87.7526 102.507L87.7595 102.502L85.4881 99.8086ZM69.7249 105.438L69.4029 101.93L66.202 102.224V105.438H69.7249ZM69.7249 115.474V118.997H73.2479V115.474H69.7249ZM63.0183 115.474H59.4953V118.997H63.0183V115.474ZM63.0183 105.634H66.5412V102.183L63.0905 102.112L63.0183 105.634ZM42.0661 101.424H38.5431V103.722L40.6467 104.648L42.0661 101.424ZM42.0661 88.5003L43.627 85.3421L38.5431 82.8293V88.5003H42.0661ZM52.2974 92.2208L51.3775 95.6215L51.3845 95.6234L52.2974 92.2208ZM63.0183 94.13L62.7985 97.646L66.5412 97.88V94.13H63.0183ZM63.0183 78.9543H66.5412V76.5425L64.2928 75.67L63.0183 78.9543ZM59.7384 77.6815L58.4471 80.9593L58.4555 80.9626L58.4639 80.9658L59.7384 77.6815ZM45.9824 69.4083L43.3525 71.7524L43.3659 71.7674L43.3795 71.7824L45.9824 69.4083ZM47.4999 46.6448L49.7386 49.365L49.7412 49.3629L47.4999 46.6448ZM63.0183 41.0641L63.3637 44.57L66.5412 44.257V41.0641H63.0183ZM63.0183 33.5741V30.0512H59.4953V33.5741H63.0183ZM69.7249 33.5741H73.2479V30.0512H69.7249V33.5741ZM69.7249 40.8683H66.202V44.2407L69.5713 44.3878L69.7249 40.8683ZM89.9918 45.372L93.2608 46.6852L94.5286 43.5294L91.4194 42.1513L89.9918 45.372ZM85.3902 56.8272L84.053 60.0865L87.3363 61.4335L88.6592 58.1404L85.3902 56.8272ZM69.7249 53.0088L70.0246 49.4986L66.202 49.1723V53.0088H69.7249ZM69.7249 67.4502H66.202V69.8697L68.4603 70.7383L69.7249 67.4502ZM83.2851 73.8141L81.3227 76.7399L81.3309 76.7454L81.3391 76.7508L83.2851 73.8141ZM89.2086 79.7376L86.1555 81.4954L86.1654 81.5126L86.1756 81.5298L89.2086 79.7376ZM74.7182 84.535L72.432 87.2154L74.7182 84.535ZM69.7249 81.5978L71.1863 78.3923L66.202 76.12V81.5978H69.7249ZM69.7249 93.7873H66.202V97.956L70.3124 97.2609L69.7249 93.7873ZM58.1719 61.8694L55.7233 64.4024L55.7662 64.4438L55.8105 64.4838L58.1719 61.8694ZM63.0183 64.7087L61.5963 67.9319L66.5412 70.1135V64.7087H63.0183ZM63.0183 53.2046H66.5412V49.1248L62.5049 49.7193L63.0183 53.2046ZM87.5948 87.2764C87.5948 91.4948 86.126 94.6617 83.2167 97.1157L87.7595 102.502C92.3563 98.6242 94.6407 93.4363 94.6407 87.2764H87.5948ZM83.2304 97.1041C80.2014 99.6328 75.7143 101.351 69.4029 101.93L70.047 108.946C77.2468 108.286 83.2685 106.251 87.7457 102.513L83.2304 97.1041ZM66.202 105.438V115.474H73.2479V105.438H66.202ZM69.7249 111.951H63.0183V118.997H69.7249V111.951ZM66.5412 115.474V105.634H59.4953V115.474H66.5412ZM63.0905 102.112C55.4948 101.956 48.9849 100.621 43.4855 98.1997L40.6467 104.648C47.1572 107.514 54.6155 108.986 62.9461 109.156L63.0905 102.112ZM45.589 101.424V88.5003H38.5431V101.424H45.589ZM40.5051 91.6585C43.6005 93.1884 47.2372 94.5016 51.3775 95.6215L53.2173 88.8201C49.3945 87.786 46.2103 86.6188 43.627 85.3421L40.5051 91.6585ZM51.3845 95.6234C55.5573 96.7429 59.37 97.4318 62.7985 97.646L63.238 90.6139C60.4005 90.4365 57.0659 89.8526 53.2103 88.8182L51.3845 95.6234ZM66.5412 94.13V78.9543H59.4953V94.13H66.5412ZM64.2928 75.67L61.0129 74.3972L58.4639 80.9658L61.7438 82.2386L64.2928 75.67ZM61.0296 74.4037C54.754 71.9315 50.7575 69.4159 48.5852 67.0343L43.3795 71.7824C46.6248 75.3405 51.799 78.3403 58.4471 80.9593L61.0296 74.4037ZM48.6123 67.0643C46.568 64.7707 45.4911 61.9264 45.4911 58.2958H38.4452C38.4452 63.4769 40.0444 68.0409 43.3525 71.7524L48.6123 67.0643ZM45.4911 58.2958C45.4911 54.628 46.8551 51.7381 49.7386 49.365L45.2612 43.9246C40.769 47.6218 38.4452 52.4992 38.4452 58.2958H45.4911ZM49.7412 49.3629C52.7524 46.8799 57.1781 45.1794 63.3637 44.57L62.6729 37.5581C55.6083 38.2541 49.6884 40.2741 45.2587 43.9267L49.7412 49.3629ZM66.5412 41.0641V33.5741H59.4953V41.0641H66.5412ZM63.0183 37.0971H69.7249V30.0512H63.0183V37.0971ZM66.202 33.5741V40.8683H73.2479V33.5741H66.202ZM69.5713 44.3878C76.6632 44.6975 82.9787 46.117 88.5642 48.5927L91.4194 42.1513C84.9297 39.2748 77.7339 37.6917 69.8786 37.3487L69.5713 44.3878ZM86.7228 44.0588L82.1211 55.514L88.6592 58.1404L93.2608 46.6852L86.7228 44.0588ZM86.7273 53.5679C81.3132 51.3467 75.7421 49.9867 70.0246 49.4986L69.4253 56.519C74.4123 56.9447 79.2847 58.1303 84.053 60.0865L86.7273 53.5679ZM66.202 53.0088V67.4502H73.2479V53.0088H66.202ZM68.4603 70.7383C74.7879 73.172 78.9944 75.1782 81.3227 76.7399L85.2475 70.8884C82.2236 68.8601 77.39 66.6237 70.9896 64.162L68.4603 70.7383ZM81.3391 76.7508C83.7272 78.3333 85.2585 79.9375 86.1555 81.4954L92.2616 77.9797C90.6782 75.2297 88.2606 72.8849 85.2311 70.8775L81.3391 76.7508ZM86.1756 81.5298C87.0826 83.0648 87.5948 84.9402 87.5948 87.2764H94.6407C94.6407 83.8688 93.8801 80.7183 92.2415 77.9453L86.1756 81.5298ZM79.9056 88.0107C79.9056 85.5358 78.8416 83.4217 77.0044 81.8547L72.432 87.2154C72.8141 87.5413 72.8597 87.7443 72.8597 88.0107H79.9056ZM77.0044 81.8547C75.5344 80.6009 73.5324 79.4618 71.1863 78.3923L68.2636 84.8033C70.356 85.7572 71.6828 86.5763 72.432 87.2154L77.0044 81.8547ZM66.202 81.5978V93.7873H73.2479V81.5978H66.202ZM70.3124 97.2609C72.8562 96.8307 75.2349 95.996 77.027 94.4411C78.955 92.7683 79.9056 90.5178 79.9056 88.0107H72.8597C72.8597 88.6041 72.7007 88.8665 72.4095 89.1192C71.9823 89.4899 71.0321 89.9933 69.1375 90.3137L70.3124 97.2609ZM53.1803 58.2958C53.1803 60.6286 54.0169 62.7528 55.7233 64.4024L60.6204 59.3365C60.3687 59.0932 60.2262 58.8349 60.2262 58.2958H53.1803ZM55.8105 64.4838C57.2377 65.7729 59.2572 66.9 61.5963 67.9319L64.4403 61.4856C62.3409 60.5594 61.1294 59.7936 60.5332 59.2551L55.8105 64.4838ZM66.5412 64.7087V53.2046H59.4953V64.7087H66.5412ZM62.5049 49.7193C60.1026 50.0731 57.8172 50.7919 56.0709 52.1998C54.1642 53.737 53.1803 55.8753 53.1803 58.2958H60.2262C60.2262 58.0571 60.2689 57.9527 60.2853 57.9178C60.3004 57.8856 60.3424 57.8066 60.4931 57.6851C60.8518 57.3959 61.7239 56.9562 63.5316 56.6899L62.5049 49.7193Z" fill="black"/>
</svg>
