<svg width="22" height="20" viewBox="0 0 22 20" fill="none" xmlns="http://www.w3.org/2000/svg">
<path d="M20.9254 7.06825L14.8636 1.00646C14.5131 0.657851 14.0393 0.461489 13.545 0.459961C13.0619 0.459961 12.5788 0.653938 12.2263 1.00646L1.50157 11.7312C1.14906 12.0837 0.955078 12.5518 0.955078 13.0498C0.955078 13.5478 1.14906 14.016 1.5053 14.3723L5.68141 18.4486C6.11973 18.8766 6.69793 19.1116 7.30971 19.1116H10.4479C11.0643 19.1116 11.6462 18.8729 12.0864 18.4383L20.9254 9.7056C21.278 9.35308 21.4719 8.88493 21.4719 8.38693C21.4719 7.88893 21.278 7.42077 20.9254 7.06825Z" fill="#E9545C"/>
<path d="M1.50157 11.731C1.14906 12.0835 0.955078 12.5517 0.955078 13.0497C0.955078 13.5477 1.14906 14.0158 1.5053 14.3721L5.68142 18.4484C6.11973 18.8765 6.69793 19.1115 7.30971 19.1115H10.4479C11.0643 19.1115 11.6462 18.8727 12.0864 18.4381L15.9995 14.5716L7.33022 5.90234L1.50157 11.731Z" fill="#ECAEAE"/>
</svg>
