<svg width="765" height="710" viewBox="0 0 765 710" fill="none" xmlns="http://www.w3.org/2000/svg">
<path d="M382.296 709.136C171.16 709.136 0 610.313 0 488.408C0 366.503 171.16 267.68 382.296 267.68C593.432 267.68 764.592 366.503 764.592 488.408C764.592 610.313 593.432 709.136 382.296 709.136Z" fill="#F5F5F5"/>
<path d="M658.077 628.054L663.276 624.991C664.137 624.423 664.854 623.661 665.368 622.767C665.883 621.873 666.181 620.871 666.24 619.841V234.499C666.179 233.472 665.879 232.473 665.365 231.583C664.85 230.692 664.135 229.933 663.276 229.366L424.186 91.3098C423.264 90.8466 422.246 90.6055 421.214 90.6055C420.182 90.6055 419.164 90.8466 418.242 91.3098L413.043 94.3232C412.181 94.888 411.463 95.646 410.946 96.5371C410.428 97.4281 410.126 98.4276 410.063 99.4561V484.865C410.124 485.896 410.425 486.899 410.942 487.793C411.46 488.687 412.179 489.448 413.043 490.014L652.133 628.054C653.056 628.517 654.073 628.758 655.105 628.758C656.137 628.758 657.155 628.517 658.077 628.054Z" fill="#37474F"/>
<path d="M410.096 98.9759C410.311 97.4526 411.553 96.8896 413.043 97.7506L652.133 235.79C653.012 236.331 653.736 237.09 654.236 237.993L665.379 231.568C664.875 230.669 664.151 229.912 663.276 229.366L424.186 91.3098C423.264 90.8466 422.246 90.6055 421.214 90.6055C420.182 90.6055 419.164 90.8466 418.242 91.3098L413.043 94.3232C412.247 94.8419 411.571 95.5259 411.063 96.3287C410.554 97.1315 410.224 98.0343 410.096 98.9759Z" fill="#455A64"/>
<path d="M652.663 628.302C652.717 628.316 652.774 628.316 652.829 628.302L653.143 628.418H653.259C653.441 628.418 653.623 628.518 653.806 628.567C654.984 628.795 656.201 628.704 657.332 628.302C657.56 628.22 657.782 628.12 657.995 628.004L663.276 624.991C664.137 624.423 664.854 623.661 665.368 622.767C665.883 621.873 666.181 620.871 666.24 619.841V234.499C666.204 233.465 665.908 232.457 665.379 231.568L654.236 237.993C654.775 238.878 655.077 239.887 655.114 240.923V626.349C655.14 626.902 654.983 627.45 654.667 627.905C654.465 628.135 654.203 628.305 653.911 628.396C653.619 628.486 653.307 628.494 653.011 628.418L652.663 628.302Z" fill="#263238"/>
<path d="M568.833 219.034C568.91 218.63 569.093 218.253 569.362 217.941L569.561 217.776C569.718 217.658 569.901 217.581 570.095 217.552C570.289 217.523 570.486 217.543 570.67 217.61C570.818 217.646 570.958 217.708 571.084 217.792C571.82 218.299 572.394 219.006 572.74 219.829C573.183 220.761 573.42 221.778 573.436 222.809C573.502 223.58 573.264 224.347 572.773 224.945C572.555 225.156 572.271 225.284 571.969 225.308C571.667 225.332 571.366 225.251 571.118 225.078C570.763 224.864 570.449 224.589 570.19 224.266C569.954 223.959 569.744 223.632 569.561 223.29C569.053 222.293 568.775 221.195 568.75 220.077C568.741 219.728 568.768 219.378 568.833 219.034ZM529.956 132.157C530.819 131.65 531.803 131.387 532.804 131.395C534.703 131.484 536.549 132.054 538.168 133.051C542.687 135.817 546.177 139.987 548.103 144.923C548.417 145.618 548.715 146.347 548.98 147.059C549.245 147.771 549.527 148.499 549.758 149.244C549.99 149.99 550.255 150.735 550.47 151.48C550.553 151.728 550.619 151.993 550.702 152.225L551.133 153.732C551.125 153.803 551.125 153.875 551.133 153.947C551.381 154.857 551.613 155.801 551.878 156.728C552.01 157.242 552.126 157.722 552.259 158.219L552.639 159.692C553.169 161.663 553.699 163.55 554.295 165.355L554.676 166.448C554.858 166.961 555.04 167.474 555.239 167.971C555.438 168.468 555.553 168.733 555.703 169.08C555.951 169.693 556.216 170.272 556.497 170.835C556.779 171.398 556.845 171.547 557.027 171.895C561.216 179.942 566.332 183.088 569.296 187.227C571.896 190.837 572.608 193.718 576.118 199.43C577.227 201.251 578.618 203.354 580.439 205.871C585.489 212.825 587.294 216.269 587.907 218.355C587.913 218.41 587.913 218.466 587.907 218.521C587.907 218.687 587.907 218.836 588.023 218.985C588.029 219.034 588.029 219.084 588.023 219.134C588.029 219.266 588.029 219.399 588.023 219.531C588.081 219.937 588.108 220.346 588.106 220.756V236.221L582.542 239.433V223.952C582.556 223.143 582.439 222.338 582.194 221.568C581.582 219.481 579.794 216.054 574.727 209.1C572.906 206.566 571.515 204.464 570.406 202.642C566.928 196.947 566.183 194.049 563.584 190.473C560.62 186.317 555.504 183.187 551.315 175.124C550.711 173.885 550.174 172.613 549.709 171.316C547.026 164.693 545.818 155.768 542.523 148.268C540.6 143.338 537.109 139.178 532.588 136.429C529.194 134.475 526.71 134.31 524.806 135.204L529.956 132.157ZM505.566 151.927C506.029 151.663 506.524 151.463 507.04 151.331C509.143 150.834 512.272 152.059 515.418 151.695C510.997 157.407 504.854 153.732 501.477 154.543C500.951 154.669 500.449 154.875 499.987 155.155L505.566 151.927ZM493.778 173.17C493.943 173.271 494.098 173.387 494.241 173.518L494.473 173.75L494.688 173.998C495.617 175.198 496.129 176.669 496.145 178.187C496.2 178.949 495.97 179.704 495.499 180.306C495.437 180.365 495.37 180.421 495.301 180.472C495.148 180.59 494.967 180.667 494.776 180.696C494.585 180.725 494.389 180.705 494.208 180.637C494.055 180.601 493.91 180.54 493.778 180.455C493.612 180.356 493.463 180.223 493.297 180.108C493.057 179.882 492.84 179.633 492.652 179.363C491.863 178.21 491.432 176.851 491.41 175.455C491.41 173.451 492.469 172.408 493.778 173.17ZM490.135 159.179C491.922 158.182 493.864 157.494 495.88 157.142C496.741 156.944 497.536 156.728 498.182 156.513C495.967 158.485 493.251 159.808 490.334 160.338C488.563 160.683 486.839 161.238 485.201 161.994L490.135 159.179Z" fill="#C4FB28"/>
<path d="M484.754 162.275L485.201 162.01C486.839 161.255 488.563 160.699 490.334 160.355C493.252 159.828 495.969 158.504 498.182 156.53C498.736 156.017 499.341 155.563 499.987 155.172C500.45 154.899 500.953 154.698 501.477 154.576C504.788 153.765 510.997 157.44 515.402 151.728L515.551 151.546C518.63 147.39 519.756 138.118 524.376 135.402L524.839 135.137C526.743 134.243 529.227 134.409 532.621 136.363C544.857 143.433 545.271 160.222 549.676 171.266C554.08 182.31 560.339 185.77 563.733 190.522C567.127 195.274 567.359 198.801 574.893 209.166C582.426 219.531 582.708 222.081 582.708 224.068V239.532L482.502 181.581V166.117C482.441 165.323 482.625 164.53 483.027 163.844C483.429 163.157 484.032 162.61 484.754 162.275ZM571.084 225.078C572.392 225.839 573.436 224.829 573.436 222.809C573.449 221.857 573.244 220.914 572.836 220.053C572.429 219.192 571.829 218.436 571.084 217.842C569.776 217.081 568.733 218.107 568.733 220.127C568.72 221.077 568.925 222.018 569.333 222.876C569.741 223.734 570.34 224.487 571.084 225.078ZM532.621 178.485C533.249 178.963 533.981 179.284 534.758 179.422C535.534 179.561 536.333 179.512 537.087 179.281C537.841 179.05 538.529 178.642 539.094 178.092C539.659 177.542 540.085 176.865 540.337 176.117C541.202 174.159 541.616 172.031 541.546 169.892C541.546 162.292 537.555 153.831 532.621 150.983C531.955 150.585 531.228 150.3 530.469 150.139C526.561 149.36 523.697 153.102 523.697 159.576C523.697 167.176 527.687 175.637 532.621 178.485ZM493.777 180.439C495.086 181.2 496.145 180.19 496.145 178.187C496.155 177.233 495.947 176.29 495.537 175.429C495.126 174.568 494.525 173.813 493.777 173.22C492.469 172.475 491.41 173.485 491.41 175.505C491.4 176.454 491.608 177.392 492.019 178.247C492.43 179.103 493.031 179.853 493.777 180.439Z" fill="#C4FB28"/>
<path opacity="0.1" d="M484.754 162.275L485.201 162.01C486.839 161.255 488.563 160.699 490.334 160.355C493.252 159.828 495.969 158.504 498.182 156.53C498.736 156.017 499.341 155.563 499.987 155.172C500.45 154.899 500.953 154.698 501.477 154.576C504.788 153.765 510.997 157.44 515.402 151.728L515.551 151.546C518.63 147.39 519.756 138.118 524.376 135.402L524.839 135.137C526.743 134.243 529.227 134.409 532.621 136.363C544.857 143.433 545.271 160.222 549.676 171.266C554.08 182.31 560.339 185.77 563.733 190.522C567.127 195.274 567.359 198.801 574.893 209.166C582.426 219.531 582.708 222.081 582.708 224.068V239.532L482.502 181.581V166.117C482.441 165.323 482.625 164.53 483.027 163.844C483.429 163.157 484.032 162.61 484.754 162.275ZM571.084 225.078C572.392 225.839 573.436 224.829 573.436 222.809C573.449 221.857 573.244 220.914 572.836 220.053C572.429 219.192 571.829 218.436 571.084 217.842C569.776 217.081 568.733 218.107 568.733 220.127C568.72 221.077 568.925 222.018 569.333 222.876C569.741 223.734 570.34 224.487 571.084 225.078ZM532.621 178.485C533.249 178.963 533.981 179.284 534.758 179.422C535.534 179.561 536.333 179.512 537.087 179.281C537.841 179.05 538.529 178.642 539.094 178.092C539.659 177.542 540.085 176.865 540.337 176.117C541.202 174.159 541.616 172.031 541.546 169.892C541.546 162.292 537.555 153.831 532.621 150.983C531.955 150.585 531.228 150.3 530.469 150.139C526.561 149.36 523.697 153.102 523.697 159.576C523.697 167.176 527.687 175.637 532.621 178.485ZM493.777 180.439C495.086 181.2 496.145 180.19 496.145 178.187C496.155 177.233 495.947 176.29 495.537 175.429C495.126 174.568 494.525 173.813 493.777 173.22C492.469 172.475 491.41 173.485 491.41 175.505C491.4 176.454 491.608 177.392 492.019 178.247C492.43 179.103 493.031 179.853 493.777 180.439Z" fill="black"/>
<path opacity="0.25" d="M582.36 221.634C582.604 222.404 582.722 223.21 582.708 224.018V239.499L588.271 236.287V220.822C588.274 220.413 588.246 220.003 588.188 219.597C588.195 219.465 588.195 219.332 588.188 219.2C588.194 219.15 588.194 219.1 588.188 219.051C588.188 218.902 588.188 218.753 588.072 218.587V218.422L582.36 221.634Z" fill="black"/>
<path opacity="0.25" d="M563.749 190.539C566.349 194.115 567.061 197.013 570.571 202.709L576.118 199.463C572.641 193.751 571.896 190.87 569.296 187.26L563.749 190.539Z" fill="black"/>
<path opacity="0.25" d="M542.49 148.135C545.801 155.636 546.993 164.477 549.676 171.183C550.197 172.524 550.794 173.834 551.464 175.107L557.027 171.912C556.845 171.564 556.663 171.2 556.497 170.852C556.332 170.504 555.951 169.71 555.702 169.097C555.553 168.749 555.388 168.368 555.239 167.988C555.09 167.607 554.858 166.978 554.676 166.464L554.295 165.372C553.699 163.567 553.169 161.679 552.639 159.709L552.259 158.235C552.126 157.739 552.01 157.258 551.878 156.745C551.613 155.818 551.381 154.874 551.133 153.963C551.125 153.892 551.125 153.82 551.133 153.748L550.702 152.241C550.619 152.01 550.553 151.745 550.47 151.496C550.255 150.751 550.007 150.006 549.758 149.261C549.51 148.516 549.262 147.804 548.98 147.075C548.699 146.347 548.417 145.635 548.103 144.94L542.49 148.135Z" fill="black"/>
<path d="M572.757 219.829C573.199 220.761 573.437 221.778 573.452 222.809C573.519 223.581 573.281 224.347 572.79 224.945C573.266 224.34 573.497 223.577 573.436 222.809C573.417 221.78 573.186 220.765 572.757 219.829ZM568.717 220.077C568.718 219.727 568.757 219.377 568.833 219.034C568.763 219.378 568.73 219.727 568.733 220.077C568.753 221.194 569.025 222.292 569.528 223.29C569.019 222.294 568.742 221.196 568.717 220.077ZM495.301 180.472C495.147 180.59 494.967 180.667 494.776 180.696C494.585 180.725 494.389 180.705 494.208 180.638C494.391 180.695 494.584 180.71 494.774 180.681C494.963 180.652 495.143 180.581 495.301 180.472Z" fill="#C4FB28"/>
<path d="M523.68 159.576C523.68 167.176 527.687 175.637 532.621 178.485C533.253 178.945 533.984 179.252 534.755 179.382C535.526 179.512 536.317 179.461 537.065 179.233C537.813 179.005 538.498 178.606 539.066 178.068C539.634 177.531 540.069 176.868 540.337 176.134C539.571 175.969 538.838 175.678 538.168 175.273C533.201 172.408 529.243 163.964 529.243 156.364C529.171 154.223 529.59 152.093 530.469 150.139C526.528 149.36 523.68 153.102 523.68 159.576Z" fill="#C4FB28"/>
<path opacity="0.3" d="M523.68 159.576C523.68 167.176 527.687 175.637 532.621 178.485C533.253 178.945 533.984 179.252 534.755 179.382C535.526 179.512 536.317 179.461 537.065 179.233C537.813 179.005 538.498 178.606 539.066 178.068C539.634 177.531 540.069 176.868 540.337 176.134C539.571 175.969 538.838 175.678 538.168 175.273C533.201 172.408 529.243 163.964 529.243 156.364C529.171 154.223 529.59 152.093 530.469 150.139C526.528 149.36 523.68 153.102 523.68 159.576Z" fill="black"/>
<path d="M569.578 223.29C569.745 223.637 569.95 223.965 570.19 224.266C570.449 224.589 570.763 224.864 571.117 225.078C571.366 225.251 571.667 225.332 571.969 225.308C572.271 225.284 572.555 225.156 572.773 224.945C573.264 224.347 573.502 223.58 573.436 222.809C573.42 221.778 573.183 220.761 572.74 219.829C572.394 219.006 571.82 218.299 571.084 217.792C570.958 217.708 570.818 217.646 570.67 217.61C570.444 217.531 570.199 217.521 569.967 217.58C569.734 217.638 569.524 217.764 569.362 217.941C569.092 218.253 568.91 218.63 568.833 219.034C568.757 219.377 568.718 219.727 568.717 220.077C568.742 221.202 569.037 222.303 569.578 223.29Z" fill="#37474F"/>
<path d="M491.41 175.455C491.431 176.851 491.863 178.21 492.651 179.363C492.84 179.633 493.057 179.882 493.297 180.108C493.463 180.224 493.612 180.356 493.777 180.455C493.91 180.54 494.055 180.601 494.208 180.638C494.432 180.713 494.673 180.722 494.903 180.663C495.132 180.604 495.339 180.48 495.499 180.306C495.97 179.704 496.2 178.949 496.145 178.187C496.128 176.669 495.617 175.198 494.688 173.998L494.473 173.75L494.241 173.518C494.098 173.388 493.942 173.271 493.777 173.17C492.469 172.408 491.41 173.452 491.41 175.455Z" fill="#37474F"/>
<path d="M636.619 271.836L428.558 151.712C428.005 151.434 427.396 151.289 426.778 151.289C426.16 151.289 425.55 151.434 424.998 151.712L422.994 152.871C422.476 153.212 422.044 153.67 421.734 154.207C421.424 154.745 421.243 155.347 421.206 155.967V473.374C421.241 473.992 421.422 474.592 421.732 475.127C422.043 475.662 422.475 476.117 422.994 476.454L631.056 596.578C631.605 596.864 632.216 597.013 632.836 597.013C633.455 597.013 634.066 596.864 634.616 596.578L636.619 595.419C637.139 595.083 637.572 594.629 637.883 594.094C638.193 593.559 638.373 592.958 638.407 592.34V274.932C638.374 274.312 638.195 273.708 637.884 273.17C637.574 272.632 637.14 272.175 636.619 271.836Z" fill="#F5F5F5"/>
<path d="M421.272 155.42C421.504 154.692 422.183 154.46 422.928 154.924L631.056 275.048C631.583 275.38 632.016 275.842 632.314 276.389L637.877 273.177C637.59 272.626 637.154 272.167 636.619 271.853L428.557 151.728C428.011 151.442 427.403 151.293 426.786 151.293C426.169 151.293 425.561 151.442 425.014 151.728L422.994 152.87C422.552 153.16 422.172 153.534 421.876 153.972C421.581 154.41 421.375 154.902 421.272 155.42Z" fill="#FAFAFA"/>
<path d="M631.47 596.843C631.683 596.924 631.906 596.979 632.132 597.009H632.48C632.837 597.05 633.198 597.05 633.556 597.009C633.783 596.981 634.005 596.926 634.218 596.843L634.616 596.645L636.619 595.485C637.141 595.152 637.575 594.698 637.886 594.162C638.197 593.627 638.376 593.024 638.407 592.406V274.932C638.39 274.311 638.207 273.705 637.877 273.177L632.314 276.39C632.628 276.923 632.804 277.526 632.827 278.145V595.552C632.827 596.529 632.264 597.009 631.47 596.843Z" fill="#E0E0E0"/>
<path d="M549.278 198.933L549.56 199.397C550.224 200.481 550.705 201.667 550.984 202.907C550.984 203.007 550.984 203.056 550.984 203.106C550.988 203.133 550.988 203.161 550.984 203.189L554.378 222.296L555.438 228.406C555.438 228.654 555.554 228.903 555.62 229.167C555.684 229.414 555.762 229.657 555.852 229.896C555.852 230.062 555.967 230.227 556.034 230.393L550.47 233.605C550.205 232.966 550.01 232.3 549.891 231.618L548.798 225.508L545.487 206.401C545.235 204.87 544.641 203.415 543.748 202.146L549.278 198.933Z" fill="#C4FB28"/>
<path d="M587.592 260.577C588.155 261.471 588.685 262.365 589.248 263.259C589.48 263.69 589.711 264.12 589.927 264.551C590.142 264.981 590.457 265.66 590.688 266.207C590.92 266.753 591.218 267.432 591.45 268.061C591.682 268.69 591.914 269.319 592.129 269.949C592.344 270.578 592.609 271.422 592.808 272.167C592.94 272.647 593.073 273.128 593.205 273.641C593.514 274.811 593.796 276.003 594.05 277.217C594.05 277.631 594.232 278.062 594.298 278.476C594.364 278.89 594.513 279.502 594.596 279.999C594.596 279.999 594.596 279.999 594.596 280.082C594.596 280.479 594.596 280.744 594.397 280.86C594.371 280.872 594.343 280.878 594.314 280.878C594.286 280.878 594.258 280.872 594.232 280.86L589.447 277.118L588.668 276.505L588.288 276.224L587.874 275.893L587.542 275.644L587.261 275.412C585.864 270.351 583.533 265.594 580.39 261.388L585.953 258.176C586.499 258.971 587.062 259.782 587.592 260.577Z" fill="#C4FB28"/>
<path d="M527.389 156.894C527.654 157.325 527.886 157.755 528.118 158.186C528.27 158.423 528.402 158.672 528.515 158.931C528.714 159.278 528.879 159.643 529.061 160.007C529.243 160.371 529.359 160.586 529.492 160.884C529.773 161.447 530.022 162.01 530.253 162.54C530.485 163.07 530.783 163.765 531.015 164.378C531.247 164.924 531.429 165.471 531.611 166.034C531.909 166.862 532.158 167.69 532.389 168.534C532.522 168.981 532.621 169.412 532.737 169.842C532.734 169.875 532.734 169.908 532.737 169.941C532.737 170.173 532.853 170.388 532.886 170.62C533.019 171.133 533.118 171.663 533.201 172.177C533.284 172.69 533.366 172.988 533.482 173.402C533.598 173.816 533.697 174.263 533.83 174.693C533.962 175.124 534.095 175.505 534.227 175.919C534.227 175.919 534.227 175.919 534.227 176.035C534.393 176.482 534.575 176.945 534.774 177.409C534.972 177.872 535.138 178.319 535.37 178.8C535.427 178.924 535.476 179.051 535.519 179.18C535.684 179.528 535.866 179.876 536.032 180.24L536.91 181.896C537.108 182.293 537.307 182.658 537.522 183.038L531.942 186.25C529.937 182.867 528.474 179.191 527.604 175.356C526.552 169.934 524.569 164.736 521.743 159.99L527.389 156.894Z" fill="#C4FB28"/>
<path d="M494.291 169.279C494.567 169.111 494.879 169.009 495.201 168.981C494.661 169.843 493.934 170.574 493.075 171.118C492.215 171.663 491.244 172.007 490.234 172.127C489.755 172.133 489.282 172.234 488.843 172.425L494.291 169.279Z" fill="#C4FB28"/>
<path opacity="0.4" d="M494.291 169.279C494.567 169.111 494.879 169.009 495.201 168.981C494.661 169.843 493.934 170.574 493.075 171.118C492.215 171.663 491.244 172.007 490.234 172.127C489.755 172.133 489.282 172.234 488.843 172.425L494.291 169.279Z" fill="white"/>
<path d="M473.544 193.47C474.418 193.042 475.382 192.834 476.355 192.863C477.327 192.892 478.277 193.157 479.124 193.635C485.598 196.483 488.396 197.775 491.741 199.165C492.387 203.47 489.853 203.868 488.595 203.354C483.893 201.5 481.492 200.357 473.544 196.864C472.704 196.393 471.764 196.13 470.801 196.099C469.839 196.067 468.883 196.267 468.014 196.682L473.544 193.47Z" fill="#C4FB28"/>
<path opacity="0.4" d="M473.544 193.47C474.418 193.042 475.382 192.834 476.355 192.863C477.327 192.892 478.277 193.157 479.124 193.635C485.598 196.483 488.396 197.775 491.741 199.165C492.387 203.47 489.853 203.868 488.595 203.354C483.893 201.5 481.492 200.357 473.544 196.864C472.704 196.393 471.764 196.13 470.801 196.099C469.839 196.067 468.883 196.267 468.014 196.682L473.544 193.47Z" fill="white"/>
<path d="M550.503 233.605C551.702 236.228 553.387 238.599 555.471 240.592L572.889 253.689C575.674 255.957 578.185 258.541 580.373 261.388L585.937 258.176C583.753 255.319 581.242 252.73 578.453 250.461L561.001 237.38C558.955 235.373 557.299 233.004 556.116 230.393L550.503 233.605Z" fill="#C4FB28"/>
<path opacity="0.4" d="M550.503 233.605C551.702 236.228 553.387 238.599 555.471 240.592L572.889 253.689C575.674 255.957 578.185 258.541 580.373 261.388L585.937 258.176C583.753 255.319 581.242 252.73 578.453 250.461L561.001 237.38C558.955 235.373 557.299 233.004 556.116 230.393L550.503 233.605Z" fill="white"/>
<path d="M532.025 186.383C534.428 190.826 537.388 194.943 540.834 198.635C541.919 199.698 542.885 200.875 543.715 202.146L549.278 198.933C548.462 197.652 547.494 196.474 546.397 195.423C542.957 191.73 540.003 187.612 537.605 183.171L532.025 186.383Z" fill="#C4FB28"/>
<path opacity="0.4" d="M532.025 186.383C534.428 190.826 537.388 194.943 540.834 198.635C541.919 199.698 542.885 200.875 543.715 202.146L549.278 198.933C548.462 197.652 547.494 196.474 546.397 195.423C542.957 191.73 540.003 187.612 537.605 183.171L532.025 186.383Z" fill="white"/>
<path d="M500.599 145.271C502.652 144.194 505.384 144.377 508.596 146.065C513.365 148.566 518.166 153.864 521.842 160.123L527.406 156.811C523.763 150.553 518.961 145.221 514.16 142.754C512.599 141.873 510.85 141.379 509.06 141.313C507.988 141.3 506.932 141.568 505.997 142.092L500.599 145.271Z" fill="#C4FB28"/>
<path opacity="0.4" d="M500.599 145.271C502.652 144.194 505.384 144.377 508.596 146.065C513.365 148.566 518.166 153.864 521.842 160.123L527.406 156.811C523.763 150.553 518.961 145.221 514.16 142.754C512.599 141.873 510.85 141.379 509.06 141.313C507.988 141.3 506.932 141.568 505.997 142.092L500.599 145.271Z" fill="white"/>
<path opacity="0.15" d="M580.323 261.388C583.467 265.594 585.797 270.351 587.195 275.412L587.476 275.644L587.807 275.893L588.221 276.224L588.602 276.505L589.38 277.118L594.099 280.893C594.125 280.905 594.153 280.911 594.182 280.911C594.211 280.911 594.239 280.905 594.265 280.893C594.447 280.777 594.53 280.512 594.463 280.115C594.463 280.115 594.463 280.115 594.463 280.032C594.463 279.535 594.281 279.022 594.165 278.509C594.049 277.995 594 277.664 593.917 277.25C593.663 276.047 593.382 274.855 593.073 273.674C592.94 273.161 592.808 272.68 592.675 272.2C592.477 271.455 592.245 270.727 591.996 269.982C591.748 269.237 591.566 268.723 591.317 268.094C591.069 267.465 590.837 266.852 590.556 266.24C590.274 265.627 590.059 265.097 589.794 264.584C589.529 264.071 589.347 263.723 589.115 263.292C588.635 262.398 588.105 261.504 587.46 260.61C586.814 259.716 586.367 258.954 585.804 258.209L580.323 261.388Z" fill="black"/>
<path opacity="0.15" d="M543.715 202.146C544.608 203.415 545.202 204.87 545.453 206.401L548.765 225.508L549.858 231.618C549.977 232.3 550.171 232.966 550.437 233.605L556 230.393C556 230.227 555.868 230.062 555.818 229.896C555.728 229.657 555.651 229.414 555.587 229.167C555.587 228.903 555.454 228.654 555.404 228.406L554.345 222.296L550.95 203.189C550.954 203.161 550.954 203.133 550.95 203.106C550.95 203.106 550.95 203.007 550.95 202.907C550.672 201.667 550.19 200.481 549.526 199.397L549.245 198.933L543.715 202.146Z" fill="black"/>
<path opacity="0.15" d="M521.826 160.123C524.651 164.868 526.635 170.067 527.687 175.488C528.557 179.324 530.02 183 532.025 186.383L537.605 183.171C537.39 182.79 537.191 182.426 536.993 182.028L536.115 180.373C535.949 180.008 535.767 179.661 535.602 179.313C535.559 179.183 535.51 179.056 535.453 178.932C535.237 178.468 535.039 177.988 534.857 177.541C534.675 177.094 534.476 176.614 534.31 176.167C534.31 176.167 534.31 176.084 534.31 176.051C534.178 175.637 534.029 175.24 533.913 174.826C533.797 174.412 533.665 173.965 533.565 173.534C533.466 173.104 533.367 172.706 533.284 172.309C533.201 171.912 533.102 171.266 532.969 170.753C532.969 170.521 532.87 170.306 532.82 170.074C532.817 170.041 532.817 170.008 532.82 169.974C532.704 169.544 532.605 169.113 532.472 168.666C532.241 167.822 531.992 167.011 531.694 166.166C531.512 165.603 531.33 165.057 531.098 164.51C530.866 163.898 530.601 163.285 530.336 162.673C530.072 162.06 529.856 161.547 529.575 161.017C529.442 160.719 529.293 160.437 529.144 160.139C528.995 159.841 528.797 159.411 528.598 159.063C528.485 158.805 528.353 158.555 528.201 158.318C527.969 157.887 527.737 157.457 527.472 157.026L521.826 160.123Z" fill="black"/>
<path d="M594.149 280.893L589.447 277.118C591.318 278.625 593.867 280.595 594.149 280.893Z" fill="#C4FB28"/>
<path d="M467.997 196.715C468.869 196.3 469.826 196.099 470.791 196.127C471.755 196.156 472.699 196.414 473.544 196.88C481.475 200.391 483.876 201.533 488.578 203.404C489.837 203.901 492.37 203.503 491.724 199.198C491.731 199.105 491.731 199.011 491.724 198.917L490.648 192.807L487.634 176.15C487.634 176.15 486.956 173.518 488.694 172.541H488.827C489.254 172.331 489.725 172.229 490.201 172.243C491.214 172.118 492.186 171.768 493.046 171.218C493.905 170.668 494.631 169.932 495.168 169.064C496.098 167.681 496.742 166.127 497.064 164.492C497.385 162.857 497.377 161.175 497.039 159.543C495.764 152.39 497.155 147.39 500.351 145.536L500.599 145.37C502.652 144.294 505.384 144.476 508.596 146.165C517.057 150.602 525.601 163.765 527.687 175.587C528.995 183.038 536.496 194.513 540.834 198.768C545.172 203.023 545.453 206.533 545.453 206.533L548.765 225.641L549.858 231.75C550.652 236.32 555.338 240.741 555.338 240.741L572.889 253.689C579.853 259.229 584.879 266.835 587.244 275.413C587.244 275.413 593.867 280.479 594.198 280.893L591.963 279.618L471.557 210.391C471.557 210.391 470.166 209.646 469.901 209.448C469.636 209.249 464.752 204.679 464.752 204.679C464.835 200.738 465.977 197.924 467.997 196.715ZM502.768 161.596C504.06 168.865 509.292 176.962 514.491 179.694C518.084 181.565 520.716 180.406 521.594 177.094C521.979 175.237 521.979 173.321 521.594 171.465C520.319 164.196 515.054 156.099 509.855 153.384C509.374 153.122 508.869 152.906 508.348 152.738C504.093 151.447 501.692 155.073 502.801 161.596H502.768Z" fill="#C4FB28"/>
<path d="M594.132 280.91L471.475 210.408L469.819 209.464C469.521 209.282 464.669 204.679 464.669 204.679L587.195 275.413C587.195 275.413 594.613 281.175 594.132 280.91Z" fill="#C4FB28"/>
<path opacity="0.3" d="M594.132 280.91L471.475 210.408L469.819 209.464C469.521 209.282 464.669 204.679 464.669 204.679L587.195 275.413C587.195 275.413 594.613 281.175 594.132 280.91Z" fill="black"/>
<path d="M508.315 152.738C508.836 152.906 509.34 153.122 509.821 153.384C515.021 156.099 520.286 164.196 521.561 171.465C521.946 173.321 521.946 175.237 521.561 177.094C520.683 180.406 518.051 181.565 514.458 179.694C509.259 176.962 504.026 168.865 502.735 161.596C501.692 155.073 504.093 151.447 508.315 152.738ZM521.23 176.962C521.596 175.17 521.596 173.323 521.23 171.531C519.955 164.345 514.772 156.348 509.639 153.682C509.213 153.456 508.77 153.263 508.315 153.102C507.976 154.852 507.976 156.651 508.315 158.401C509.59 165.67 514.838 173.766 520.054 176.498C520.433 176.698 520.826 176.869 521.23 177.011V176.962Z" fill="#C4FB28"/>
<path opacity="0.4" d="M508.315 152.738C508.836 152.906 509.34 153.122 509.821 153.384C515.021 156.099 520.286 164.196 521.561 171.465C521.946 173.321 521.946 175.237 521.561 177.094C520.683 180.406 518.051 181.565 514.458 179.694C509.259 176.962 504.026 168.865 502.735 161.596C501.692 155.073 504.093 151.447 508.315 152.738ZM521.23 176.962C521.596 175.17 521.596 173.323 521.23 171.531C519.955 164.345 514.772 156.348 509.639 153.682C509.213 153.456 508.77 153.263 508.315 153.102C507.976 154.852 507.976 156.651 508.315 158.401C509.59 165.67 514.838 173.766 520.054 176.498C520.433 176.698 520.826 176.869 521.23 177.011V176.962Z" fill="black"/>
<path d="M604.895 374.459C605.156 374.46 605.413 374.392 605.64 374.261C605.912 374.085 606.131 373.837 606.271 373.545C606.411 373.253 606.468 372.927 606.435 372.605V365.535C606.41 364.9 606.231 364.28 605.914 363.729C605.597 363.178 605.15 362.713 604.613 362.372L598.437 358.813C598.181 358.643 597.883 358.548 597.576 358.539C597.269 358.529 596.966 358.605 596.7 358.758C596.433 358.911 596.215 359.135 596.068 359.405C595.922 359.674 595.854 359.98 595.871 360.286V367.422C595.893 368.058 596.07 368.679 596.388 369.23C596.705 369.782 597.153 370.247 597.692 370.585L603.868 374.161C604.178 374.349 604.532 374.452 604.895 374.459ZM597.411 359.988C597.509 360.016 597.603 360.054 597.692 360.104L603.868 363.664C604.178 363.873 604.437 364.15 604.623 364.475C604.81 364.799 604.92 365.162 604.944 365.535V372.671C604.972 372.769 604.972 372.872 604.944 372.969C604.845 372.953 604.75 372.919 604.663 372.87L598.487 369.293C598.177 369.084 597.918 368.807 597.732 368.483C597.545 368.159 597.435 367.796 597.411 367.422V360.286C597.402 360.215 597.402 360.142 597.411 360.071V359.988Z" fill="#455A64"/>
<path d="M590.622 357.786L566.283 343.729C565.471 343.265 564.825 343.629 564.825 344.557V346.461C564.855 346.963 565.002 347.451 565.255 347.885C565.508 348.32 565.86 348.688 566.283 348.961L590.622 363.018C591.417 363.482 592.079 363.118 592.079 362.19V360.286C592.05 359.784 591.903 359.296 591.65 358.862C591.397 358.427 591.044 358.059 590.622 357.786Z" fill="#E0E0E0"/>
<path d="M544.576 339.639C544.837 339.642 545.095 339.573 545.321 339.44C545.596 339.267 545.818 339.02 545.961 338.728C546.105 338.435 546.164 338.109 546.132 337.785V330.648C546.104 330.012 545.922 329.392 545.602 328.841C545.282 328.29 544.833 327.825 544.294 327.486L538.118 323.926C537.863 323.743 537.561 323.637 537.247 323.619C536.933 323.601 536.621 323.674 536.347 323.827C536.079 323.988 535.863 324.22 535.723 324.499C535.582 324.777 535.523 325.089 535.552 325.4V332.536C535.574 333.172 535.751 333.793 536.069 334.344C536.386 334.895 536.834 335.36 537.373 335.698L543.549 339.275C543.853 339.486 544.207 339.612 544.576 339.639ZM537.108 325.168C537.199 325.201 537.287 325.24 537.373 325.284L543.549 328.844C543.862 329.052 544.123 329.329 544.312 329.653C544.501 329.977 544.614 330.34 544.642 330.715V337.851C544.675 337.948 544.675 338.052 544.642 338.149C544.544 338.13 544.449 338.096 544.36 338.05L538.184 334.473C537.872 334.266 537.613 333.989 537.426 333.665C537.239 333.34 537.13 332.976 537.108 332.602V325.466C537.079 325.369 537.079 325.265 537.108 325.168Z" fill="#455A64"/>
<path d="M530.303 322.966L505.964 308.908C505.152 308.445 504.507 308.809 504.507 309.736V311.64C504.536 312.142 504.683 312.63 504.936 313.065C505.189 313.499 505.541 313.868 505.964 314.14L530.303 328.198C531.115 328.661 531.76 328.297 531.76 327.37V325.466C531.722 324.966 531.572 324.481 531.319 324.048C531.067 323.615 530.719 323.245 530.303 322.966Z" fill="#E0E0E0"/>
<path d="M484.273 304.819C484.535 304.82 484.792 304.751 485.018 304.62C485.288 304.442 485.505 304.193 485.645 303.902C485.785 303.61 485.843 303.286 485.813 302.964V295.828C485.787 295.193 485.608 294.574 485.291 294.023C484.974 293.472 484.528 293.007 483.992 292.665L477.816 289.106C477.559 288.93 477.257 288.831 476.946 288.82C476.635 288.808 476.327 288.885 476.057 289.04C475.787 289.196 475.567 289.424 475.421 289.699C475.275 289.975 475.21 290.285 475.233 290.596V297.715C475.258 298.353 475.439 298.974 475.759 299.525C476.079 300.076 476.53 300.541 477.071 300.878L483.247 304.454C483.55 304.667 483.904 304.793 484.273 304.819ZM483.247 294.023C483.555 294.235 483.811 294.513 483.997 294.837C484.184 295.16 484.295 295.522 484.323 295.894V303.03C484.356 303.127 484.356 303.232 484.323 303.328C484.228 303.318 484.137 303.284 484.058 303.229L477.882 299.653C477.57 299.445 477.309 299.168 477.119 298.844C476.93 298.519 476.817 298.156 476.789 297.782V290.662C476.759 290.559 476.759 290.45 476.789 290.347C476.789 290.347 476.889 290.347 477.071 290.463L483.247 294.023Z" fill="#455A64"/>
<path d="M469.984 288.145L445.645 274.088C444.85 273.624 444.188 273.989 444.188 274.916V276.82C444.226 277.32 444.376 277.804 444.629 278.238C444.881 278.671 445.229 279.041 445.645 279.32L469.984 293.377C470.796 293.841 471.441 293.477 471.441 292.55V290.645C471.412 290.143 471.265 289.655 471.012 289.221C470.759 288.787 470.407 288.418 469.984 288.145Z" fill="#E0E0E0"/>
<path d="M590.556 322.949V325.731C590.556 327.254 589.496 327.867 588.188 327.105L445.794 244.963C445.103 244.51 444.529 243.901 444.118 243.184C443.707 242.468 443.47 241.665 443.426 240.841V238.042C443.426 236.536 444.486 235.923 445.794 236.668L588.188 318.826C588.879 319.28 589.453 319.889 589.864 320.605C590.275 321.322 590.512 322.124 590.556 322.949Z" fill="#E0E0E0"/>
<path d="M601.401 301.226V304.007C601.401 305.531 600.341 306.143 599.017 305.382L456.705 223.24C456.01 222.79 455.431 222.182 455.017 221.466C454.602 220.749 454.364 219.944 454.321 219.117V216.319C454.321 214.812 455.381 214.2 456.705 214.945L599.017 297.153C599.706 297.597 600.28 298.198 600.694 298.905C601.108 299.613 601.351 300.408 601.401 301.226Z" fill="#455A64"/>
<path d="M590.556 339.788V342.586C590.556 344.093 589.496 344.706 588.188 343.961L445.794 261.819C445.103 261.365 444.529 260.756 444.118 260.04C443.707 259.324 443.47 258.521 443.426 257.696V254.898C443.426 253.391 444.486 252.778 445.794 253.524L588.188 335.682C588.876 336.134 589.449 336.74 589.86 337.453C590.271 338.167 590.51 338.966 590.556 339.788Z" fill="#E0E0E0"/>
<path d="M606.153 341.229C602.428 337.536 601.5 335.963 601.5 334.606C601.5 333.248 602.047 332.519 603.719 333.48C604.442 333.9 605.064 334.474 605.542 335.16C606.02 335.847 606.341 336.629 606.484 337.453L610.557 338.364C610.203 336.23 609.398 334.196 608.196 332.398C606.994 330.599 605.423 329.077 603.587 327.933C599.514 325.582 597.146 327.337 597.146 331.244C597.373 335.049 599.029 338.626 601.782 341.262V344.49L606.153 347.007V341.229Z" fill="#455A64"/>
<path d="M606.203 351.958C606.209 351.162 606.008 350.378 605.619 349.684C605.23 348.99 604.666 348.41 603.984 348.001C602.527 347.156 601.782 347.901 601.782 349.408C601.769 350.207 601.966 350.996 602.352 351.696C602.738 352.396 603.301 352.983 603.984 353.398C605.458 354.243 606.203 353.448 606.203 351.958Z" fill="#455A64"/>
<path d="M603.934 365.535L602.113 366.909L603.769 370.055C603.911 370.247 603.988 370.479 603.988 370.717C603.988 370.956 603.911 371.188 603.769 371.38C603.454 371.612 603.007 371.38 602.742 370.883L601.087 367.754L599.265 369.128C599 369.327 598.603 369.128 598.371 368.697C598.249 368.532 598.183 368.332 598.183 368.126C598.183 367.921 598.249 367.72 598.371 367.555L600.192 366.181L598.537 363.035C598.394 362.843 598.317 362.611 598.317 362.372C598.317 362.134 598.394 361.902 598.537 361.71C598.851 361.478 599.298 361.71 599.563 362.207L601.219 365.353L603.04 363.979C603.305 363.78 603.703 363.979 603.934 364.392C604.057 364.558 604.123 364.758 604.123 364.964C604.123 365.169 604.057 365.37 603.934 365.535Z" fill="#C4FB28"/>
<path d="M604.895 437.328C605.155 437.335 605.412 437.272 605.64 437.146C605.912 436.97 606.131 436.723 606.271 436.431C606.411 436.138 606.468 435.813 606.435 435.49V428.354C606.413 427.718 606.235 427.097 605.918 426.546C605.6 425.995 605.152 425.53 604.613 425.192L598.437 421.632C598.181 421.462 597.883 421.368 597.576 421.358C597.269 421.348 596.966 421.424 596.7 421.577C596.433 421.73 596.215 421.954 596.068 422.224C595.922 422.494 595.854 422.799 595.871 423.105V430.242C595.893 430.878 596.07 431.498 596.388 432.05C596.705 432.601 597.153 433.066 597.692 433.404L603.868 436.964C604.172 437.175 604.526 437.301 604.895 437.328ZM597.411 422.874C597.512 422.892 597.608 422.931 597.692 422.989L603.868 426.549C604.178 426.758 604.437 427.036 604.623 427.36C604.81 427.684 604.92 428.047 604.944 428.42V435.557C604.972 435.654 604.972 435.757 604.944 435.855C604.845 435.838 604.75 435.805 604.663 435.755L598.487 432.179C598.177 431.97 597.918 431.693 597.732 431.368C597.545 431.044 597.435 430.681 597.411 430.308V423.172C597.395 423.073 597.395 422.972 597.411 422.874Z" fill="#455A64"/>
<path d="M590.622 420.655L566.283 406.614C565.471 406.15 564.825 406.515 564.825 407.442V409.33C564.852 409.834 564.998 410.326 565.251 410.763C565.504 411.201 565.858 411.572 566.283 411.846L590.622 425.904C591.417 426.367 592.079 425.986 592.079 425.059V423.172C592.051 422.667 591.905 422.176 591.652 421.739C591.399 421.302 591.046 420.93 590.622 420.655Z" fill="#E0E0E0"/>
<path d="M544.576 402.508C544.836 402.516 545.094 402.453 545.321 402.326C545.596 402.152 545.818 401.905 545.961 401.613C546.105 401.321 546.164 400.994 546.132 400.67V393.534C546.107 392.897 545.926 392.275 545.606 391.724C545.286 391.173 544.835 390.708 544.294 390.371L538.118 386.811C537.863 386.628 537.561 386.522 537.247 386.504C536.933 386.487 536.621 386.559 536.347 386.712C536.079 386.873 535.863 387.106 535.723 387.384C535.582 387.662 535.523 387.975 535.552 388.285V395.421C535.574 396.057 535.751 396.678 536.069 397.229C536.386 397.781 536.834 398.246 537.373 398.584L543.549 402.144C543.853 402.354 544.207 402.48 544.576 402.508ZM537.108 388.053C537.202 388.077 537.292 388.116 537.373 388.169L543.549 391.729C543.862 391.937 544.123 392.214 544.312 392.538C544.501 392.862 544.614 393.225 544.642 393.6V400.736C544.675 400.833 544.675 400.938 544.642 401.034C544.544 401.015 544.449 400.982 544.36 400.935L538.184 397.358C537.874 397.149 537.616 396.872 537.429 396.548C537.243 396.224 537.133 395.861 537.108 395.487V388.351C537.079 388.254 537.079 388.15 537.108 388.053Z" fill="#455A64"/>
<path d="M530.303 385.834L505.964 371.794C505.152 371.33 504.507 371.694 504.507 372.621V374.509C504.533 375.014 504.679 375.505 504.932 375.943C505.186 376.38 505.539 376.751 505.964 377.026L530.303 391.083C531.115 391.547 531.76 391.083 531.76 390.239V388.351C531.725 387.848 531.575 387.36 531.323 386.924C531.07 386.488 530.722 386.115 530.303 385.834Z" fill="#E0E0E0"/>
<path d="M484.273 367.687C484.534 367.694 484.791 367.631 485.018 367.505C485.288 367.327 485.505 367.079 485.645 366.787C485.785 366.496 485.843 366.172 485.813 365.85V358.713C485.787 358.078 485.608 357.459 485.291 356.908C484.974 356.358 484.528 355.892 483.992 355.551L477.816 351.991C477.56 351.817 477.26 351.718 476.95 351.706C476.641 351.694 476.334 351.769 476.065 351.922C475.796 352.076 475.575 352.302 475.428 352.574C475.281 352.847 475.214 353.155 475.233 353.465V360.601C475.258 361.238 475.439 361.859 475.759 362.41C476.079 362.962 476.53 363.426 477.071 363.763L483.247 367.323C483.55 367.536 483.904 367.661 484.273 367.687ZM483.247 356.908C483.555 357.12 483.811 357.398 483.997 357.722C484.184 358.046 484.295 358.407 484.323 358.779V365.916C484.356 366.012 484.356 366.117 484.323 366.214C484.231 366.193 484.142 366.159 484.058 366.114L477.882 362.538C477.57 362.33 477.309 362.053 477.119 361.729C476.93 361.405 476.817 361.041 476.789 360.667V353.531C476.76 353.434 476.76 353.33 476.789 353.233C476.888 353.257 476.983 353.296 477.071 353.349L483.247 356.908Z" fill="#455A64"/>
<path d="M469.984 351.014L445.645 336.973C444.85 336.51 444.188 336.874 444.188 337.801V339.689C444.223 340.191 444.373 340.679 444.625 341.116C444.878 341.552 445.226 341.924 445.645 342.205L469.984 356.263C470.796 356.726 471.441 356.346 471.441 355.418V353.531C471.415 353.026 471.269 352.535 471.016 352.097C470.762 351.66 470.409 351.288 469.984 351.014Z" fill="#E0E0E0"/>
<path d="M590.556 385.818V388.616C590.556 390.123 589.496 390.736 588.188 389.99L445.794 307.849C445.103 307.395 444.529 306.786 444.118 306.07C443.707 305.354 443.47 304.551 443.426 303.726V300.928C443.426 299.421 444.486 298.808 445.794 299.553L588.188 381.712C588.876 382.163 589.449 382.77 589.86 383.483C590.271 384.196 590.51 384.996 590.556 385.818Z" fill="#E0E0E0"/>
<path d="M590.556 402.674V405.472C590.556 406.978 589.496 407.591 588.188 406.846L445.794 324.688C445.102 324.24 444.526 323.634 444.115 322.92C443.703 322.206 443.467 321.405 443.426 320.581V317.783C443.426 316.26 444.486 315.647 445.794 316.409L588.188 398.567C588.876 399.019 589.449 399.626 589.86 400.339C590.271 401.052 590.51 401.852 590.556 402.674Z" fill="#E0E0E0"/>
<path d="M606.153 404.114C602.428 400.422 601.5 398.849 601.5 397.491C601.5 396.133 602.047 395.405 603.719 396.365C604.442 396.785 605.064 397.359 605.542 398.046C606.02 398.732 606.341 399.515 606.484 400.339L610.557 401.249C610.203 399.116 609.398 397.082 608.196 395.283C606.994 393.484 605.423 391.962 603.587 390.818C599.514 388.467 597.146 390.222 597.146 394.213C597.373 398.017 599.029 401.595 601.782 404.23V407.459L606.153 409.975V404.114Z" fill="#455A64"/>
<path d="M606.203 414.843C606.209 414.047 606.008 413.264 605.619 412.57C605.23 411.876 604.666 411.295 603.984 410.886C602.527 410.042 601.782 410.787 601.782 412.293C601.771 413.092 601.968 413.881 602.354 414.58C602.741 415.28 603.302 415.867 603.984 416.284C605.458 417.128 606.203 416.366 606.203 414.843Z" fill="#455A64"/>
<path d="M543.615 393.534L541.794 394.908L543.45 398.054C543.592 398.245 543.669 398.478 543.669 398.716C543.669 398.955 543.592 399.187 543.45 399.378C543.152 399.61 542.688 399.378 542.423 398.882L540.767 395.752L538.946 397.127C538.681 397.325 538.284 397.127 538.069 396.696C537.946 396.531 537.88 396.331 537.88 396.125C537.88 395.919 537.946 395.719 538.069 395.554L539.89 394.179L538.234 391.034C538.101 390.834 538.036 390.597 538.051 390.357C538.066 390.118 538.16 389.89 538.317 389.709C538.615 389.494 539.079 389.709 539.343 390.206L540.999 393.352L542.821 391.977C543.069 391.779 543.466 391.977 543.698 392.391C543.811 392.564 543.865 392.77 543.85 392.976C543.835 393.183 543.752 393.379 543.615 393.534Z" fill="#C4FB28"/>
<path d="M604.895 500.214C605.156 500.215 605.413 500.146 605.64 500.015C605.907 499.854 606.123 499.621 606.264 499.343C606.404 499.065 606.464 498.752 606.434 498.442V491.306C606.413 490.67 606.235 490.049 605.918 489.498C605.6 488.946 605.152 488.481 604.613 488.143L598.437 484.583C598.181 484.414 597.883 484.319 597.576 484.31C597.269 484.3 596.966 484.376 596.699 484.529C596.433 484.681 596.215 484.905 596.068 485.175C595.922 485.445 595.854 485.75 595.871 486.057V493.193C595.893 493.829 596.07 494.45 596.388 495.001C596.705 495.553 597.153 496.018 597.692 496.356L603.868 499.916C604.178 500.103 604.532 500.206 604.895 500.214ZM597.411 485.759C597.512 485.777 597.607 485.817 597.692 485.875L603.868 489.435C604.178 489.644 604.437 489.921 604.623 490.245C604.81 490.57 604.92 490.932 604.944 491.306V498.442C604.97 498.54 604.97 498.642 604.944 498.74C604.843 498.722 604.747 498.682 604.663 498.624L598.487 495.064C598.177 494.855 597.918 494.578 597.732 494.254C597.545 493.929 597.435 493.567 597.411 493.193V486.057C597.395 485.958 597.395 485.858 597.411 485.759Z" fill="#455A64"/>
<path d="M590.622 483.54L566.283 469.483C565.471 469.019 564.825 469.4 564.825 470.327V472.215C564.852 472.72 564.998 473.211 565.251 473.649C565.504 474.086 565.858 474.457 566.283 474.732L590.622 488.789C591.417 489.253 592.079 488.872 592.079 487.945V486.057C592.051 485.552 591.905 485.062 591.652 484.624C591.399 484.187 591.046 483.816 590.622 483.54Z" fill="#E0E0E0"/>
<path d="M544.576 465.393C544.837 465.396 545.095 465.327 545.321 465.194C545.591 465.036 545.811 464.804 545.954 464.525C546.098 464.247 546.159 463.934 546.132 463.621V456.485C546.107 455.848 545.926 455.227 545.606 454.676C545.286 454.124 544.835 453.66 544.294 453.323L538.118 449.763C537.86 449.588 537.56 449.485 537.248 449.464C536.937 449.444 536.626 449.507 536.347 449.647C536.077 449.825 535.86 450.073 535.72 450.365C535.58 450.657 535.522 450.981 535.552 451.303V458.439C535.574 459.075 535.751 459.696 536.069 460.247C536.386 460.798 536.834 461.263 537.373 461.601L543.549 465.161C543.866 465.326 544.219 465.406 544.576 465.393ZM537.108 450.938C537.202 450.962 537.292 451.001 537.373 451.054L543.549 454.614C543.862 454.822 544.123 455.099 544.312 455.423C544.501 455.747 544.614 456.111 544.642 456.485V463.621C544.671 463.719 544.671 463.822 544.642 463.919C544.542 463.898 544.446 463.859 544.36 463.804L538.118 460.244C537.808 460.035 537.55 459.757 537.363 459.433C537.176 459.109 537.067 458.746 537.042 458.373V451.236C537.03 451.132 537.053 451.027 537.108 450.938Z" fill="#455A64"/>
<path d="M530.303 448.72L505.964 434.662C505.152 434.215 504.507 434.58 504.507 435.507V437.394C504.533 437.899 504.679 438.391 504.932 438.828C505.186 439.266 505.539 439.637 505.964 439.911L530.303 453.969C531.115 454.432 531.76 454.051 531.76 453.124V451.237C531.725 450.734 531.575 450.246 531.323 449.81C531.07 449.374 530.722 449.001 530.303 448.72Z" fill="#E0E0E0"/>
<path d="M484.273 430.573C484.535 430.574 484.792 430.505 485.018 430.374C485.285 430.213 485.502 429.98 485.642 429.702C485.783 429.424 485.842 429.112 485.813 428.801V421.665C485.791 421.029 485.614 420.408 485.296 419.857C484.979 419.305 484.531 418.84 483.992 418.502L477.816 414.942C477.563 414.762 477.264 414.656 476.954 414.637C476.644 414.618 476.335 414.687 476.062 414.836C475.789 414.984 475.564 415.207 475.411 415.477C475.259 415.748 475.185 416.056 475.2 416.366V423.503C475.225 424.14 475.405 424.761 475.726 425.312C476.046 425.863 476.497 426.328 477.038 426.665L483.214 430.225C483.528 430.437 483.895 430.558 484.273 430.573ZM483.247 419.794C483.554 420.005 483.811 420.283 483.997 420.607C484.183 420.931 484.295 421.292 484.323 421.665V428.801C484.352 428.898 484.352 429.002 484.323 429.099C484.229 429.076 484.139 429.036 484.058 428.983L477.882 425.423C477.57 425.215 477.309 424.938 477.119 424.614C476.93 424.29 476.817 423.927 476.789 423.552V416.366C476.76 416.269 476.76 416.166 476.789 416.068C476.887 416.09 476.981 416.124 477.071 416.168L483.247 419.794Z" fill="#455A64"/>
<path d="M469.984 413.899L445.645 399.842C444.85 399.395 444.188 399.842 444.188 400.687V402.574C444.223 403.077 444.373 403.565 444.625 404.001C444.878 404.437 445.226 404.81 445.645 405.091L469.984 419.148C470.796 419.612 471.441 419.231 471.441 418.304V416.367C471.407 415.87 471.258 415.389 471.005 414.961C470.752 414.532 470.402 414.169 469.984 413.899Z" fill="#E0E0E0"/>
<path d="M590.556 448.703V451.501C590.556 453.008 589.496 453.621 588.188 452.876L445.794 370.717C445.102 370.27 444.526 369.664 444.115 368.95C443.703 368.236 443.467 367.434 443.426 366.611V363.813C443.426 362.306 444.486 361.677 445.794 362.439L588.188 444.597C588.876 445.049 589.449 445.655 589.86 446.369C590.271 447.082 590.51 447.881 590.556 448.703Z" fill="#E0E0E0"/>
<path d="M590.556 465.559V468.357C590.556 469.864 589.496 470.476 588.188 469.715L445.794 387.573C445.104 387.123 444.53 386.517 444.118 385.803C443.707 385.09 443.47 384.289 443.426 383.467V380.669C443.426 379.145 444.486 378.533 445.794 379.294L588.188 461.453C588.878 461.902 589.452 462.509 589.864 463.222C590.275 463.936 590.512 464.736 590.556 465.559Z" fill="#E0E0E0"/>
<path d="M606.153 466.999C602.428 463.307 601.5 461.734 601.5 460.376C601.5 459.019 602.047 458.273 603.719 459.25C604.442 459.671 605.064 460.244 605.542 460.931C606.02 461.617 606.341 462.4 606.484 463.224L610.557 464.118C610.201 461.987 609.394 459.956 608.193 458.161C606.991 456.365 605.421 454.846 603.587 453.704C599.514 451.352 597.146 453.107 597.146 457.015C597.373 460.819 599.029 464.397 601.782 467.032V470.261L606.153 472.778V466.999Z" fill="#455A64"/>
<path d="M606.203 477.729C606.211 476.93 606.01 476.144 605.621 475.447C605.232 474.75 604.668 474.167 603.984 473.755C602.527 472.927 601.782 473.672 601.782 475.179C601.773 475.977 601.971 476.765 602.357 477.464C602.742 478.164 603.303 478.751 603.984 479.169C605.458 480.013 606.203 479.285 606.203 477.729Z" fill="#455A64"/>
<path d="M483.296 421.599L481.492 422.973L483.147 426.119C483.292 426.309 483.371 426.542 483.371 426.781C483.371 427.02 483.292 427.253 483.147 427.443C482.849 427.675 482.386 427.443 482.121 426.947L480.465 423.801L478.644 425.175C478.379 425.374 477.998 425.175 477.766 424.761C477.641 424.597 477.574 424.396 477.574 424.19C477.574 423.983 477.641 423.783 477.766 423.619L479.587 422.244L477.932 419.098C477.806 418.896 477.746 418.66 477.761 418.423C477.776 418.185 477.864 417.958 478.015 417.774C478.313 417.542 478.776 417.774 479.041 418.27L480.697 421.416L482.518 420.026C482.783 419.827 483.18 420.026 483.396 420.456C483.507 420.631 483.557 420.838 483.539 421.044C483.521 421.251 483.436 421.445 483.296 421.599Z" fill="#C4FB28"/>
<path d="M604.895 563.099C605.156 563.1 605.413 563.031 605.64 562.9C605.907 562.739 606.123 562.507 606.264 562.228C606.404 561.95 606.464 561.638 606.434 561.327V554.191C606.413 553.555 606.235 552.934 605.918 552.383C605.6 551.832 605.152 551.366 604.613 551.028L598.437 547.452C598.175 547.284 597.875 547.187 597.564 547.17C597.254 547.152 596.944 547.215 596.666 547.353C596.393 547.528 596.175 547.776 596.034 548.068C595.894 548.361 595.837 548.686 595.871 549.008V556.145C595.897 556.78 596.076 557.399 596.393 557.949C596.71 558.5 597.156 558.966 597.692 559.307L603.868 562.867C604.185 563.032 604.538 563.111 604.895 563.099ZM597.411 548.644C597.51 548.661 597.605 548.694 597.692 548.744L603.868 552.32C604.178 552.529 604.437 552.806 604.623 553.131C604.81 553.455 604.92 553.818 604.944 554.191V561.327C604.97 561.425 604.97 561.528 604.944 561.625C604.846 561.598 604.752 561.559 604.663 561.509L598.487 557.949C598.177 557.74 597.918 557.463 597.732 557.139C597.545 556.815 597.435 556.452 597.411 556.078V548.942C597.393 548.844 597.393 548.743 597.411 548.644Z" fill="#455A64"/>
<path d="M590.622 546.426L566.283 532.368C565.471 531.905 564.825 532.285 564.825 533.213V535.1C564.852 535.605 564.998 536.096 565.251 536.534C565.504 536.971 565.858 537.343 566.283 537.617L590.622 551.674C591.417 552.138 592.079 551.674 592.079 550.83V548.942C592.051 548.438 591.905 547.947 591.652 547.51C591.399 547.072 591.046 546.701 590.622 546.426Z" fill="#E0E0E0"/>
<path d="M544.576 528.279C544.838 528.281 545.095 528.213 545.321 528.08C545.605 527.915 545.834 527.67 545.978 527.375C546.123 527.081 546.176 526.749 546.132 526.424V519.288C546.107 518.651 545.926 518.03 545.606 517.478C545.286 516.927 544.835 516.463 544.294 516.125L538.118 512.549C537.861 512.379 537.561 512.283 537.253 512.274C536.944 512.265 536.639 512.343 536.373 512.497C536.106 512.652 535.888 512.879 535.742 513.151C535.597 513.424 535.531 513.731 535.552 514.039V521.175C535.574 521.811 535.751 522.432 536.069 522.983C536.386 523.535 536.834 524 537.373 524.338L543.549 527.898C543.851 528.115 544.206 528.246 544.576 528.279ZM537.108 513.824C537.201 513.845 537.29 513.878 537.373 513.923L543.549 517.5C543.862 517.708 544.123 517.984 544.312 518.309C544.501 518.633 544.614 518.996 544.642 519.371V526.507C544.671 526.604 544.671 526.708 544.642 526.805C544.545 526.774 544.451 526.735 544.361 526.689L538.185 523.129C537.874 522.92 537.616 522.643 537.429 522.319C537.243 521.994 537.133 521.632 537.108 521.258V514.056C537.089 513.98 537.089 513.9 537.108 513.824Z" fill="#455A64"/>
<path d="M530.303 511.605L505.964 497.548C505.152 497.084 504.507 497.548 504.507 498.392V500.28C504.533 500.785 504.679 501.276 504.932 501.713C505.186 502.151 505.539 502.522 505.964 502.797L530.303 516.854C531.115 517.317 531.76 516.937 531.76 516.009V514.056C531.715 513.564 531.561 513.089 531.309 512.666C531.057 512.242 530.713 511.879 530.303 511.605Z" fill="#E0E0E0"/>
<path d="M484.273 493.458C484.535 493.459 484.792 493.391 485.018 493.259C485.285 493.099 485.502 492.866 485.642 492.588C485.783 492.309 485.842 491.997 485.813 491.686V484.55C485.791 483.914 485.614 483.294 485.296 482.742C484.979 482.191 484.531 481.726 483.992 481.388L477.816 477.811C477.551 477.644 477.248 477.546 476.935 477.529C476.622 477.512 476.309 477.575 476.028 477.712C475.758 477.89 475.541 478.138 475.401 478.43C475.261 478.722 475.203 479.046 475.233 479.368V486.504C475.261 487.14 475.443 487.761 475.763 488.311C476.083 488.862 476.532 489.327 477.071 489.666L483.247 493.226C483.563 493.392 483.917 493.472 484.273 493.458ZM483.247 482.679C483.554 482.891 483.811 483.169 483.997 483.493C484.183 483.816 484.295 484.178 484.323 484.55V491.686C484.352 491.784 484.352 491.887 484.323 491.985C484.232 491.952 484.144 491.913 484.058 491.869L477.882 488.309C477.57 488.101 477.309 487.824 477.119 487.5C476.93 487.175 476.817 486.812 476.789 486.438V479.285C476.756 479.188 476.756 479.084 476.789 478.987C476.887 479.009 476.981 479.042 477.071 479.086L483.247 482.679Z" fill="#455A64"/>
<path d="M469.984 476.785L445.645 462.727C444.85 462.264 444.188 462.645 444.188 463.572V465.459C444.223 465.962 444.373 466.45 444.625 466.886C444.878 467.322 445.226 467.695 445.645 467.976L469.984 482.033C470.796 482.497 471.441 482.033 471.441 481.189V479.285C471.412 478.783 471.265 478.295 471.012 477.86C470.759 477.426 470.407 477.057 469.984 476.785Z" fill="#E0E0E0"/>
<path d="M590.556 511.589V514.387C590.556 515.894 589.496 516.506 588.188 515.745L445.794 433.603C445.104 433.153 444.53 432.547 444.118 431.833C443.707 431.12 443.47 430.319 443.426 429.497V426.698C443.426 425.175 444.486 424.562 445.794 425.324L588.188 507.482C588.878 507.932 589.452 508.538 589.864 509.252C590.275 509.966 590.512 510.766 590.556 511.589Z" fill="#E0E0E0"/>
<path d="M590.556 528.444V531.242C590.556 532.749 589.496 533.362 588.188 532.6L445.794 450.458C445.106 450.007 444.533 449.4 444.122 448.687C443.711 447.974 443.472 447.174 443.426 446.352V443.554C443.426 442.031 444.486 441.418 445.794 442.18L588.188 524.338C588.878 524.788 589.452 525.394 589.864 526.107C590.275 526.821 590.512 527.622 590.556 528.444Z" fill="#E0E0E0"/>
<path d="M606.153 529.885C602.428 526.192 601.5 524.619 601.5 523.262C601.5 521.904 602.047 521.159 603.719 522.136C604.44 522.554 605.061 523.125 605.539 523.809C606.016 524.492 606.339 525.272 606.484 526.093L610.557 527.004C610.201 524.873 609.394 522.842 608.193 521.046C606.991 519.251 605.421 517.731 603.587 516.589C599.514 514.238 597.146 515.993 597.146 519.983C597.373 523.787 599.029 527.365 601.782 530.001V533.229L606.153 535.746V529.885Z" fill="#455A64"/>
<path d="M606.203 540.548C606.211 539.749 606.01 538.963 605.621 538.266C605.232 537.569 604.668 536.986 603.984 536.574C602.527 535.746 601.782 536.474 601.782 537.998C601.77 538.795 601.968 539.581 602.354 540.278C602.74 540.975 603.302 541.559 603.984 541.972C605.458 542.899 606.203 542.203 606.203 540.548Z" fill="#455A64"/>
<path d="M483.296 484.749L481.492 486.123L483.147 489.269C483.292 489.459 483.371 489.692 483.371 489.931C483.371 490.171 483.292 490.403 483.147 490.594C482.849 490.825 482.386 490.594 482.121 490.097L480.465 486.951L478.644 488.342C478.379 488.541 477.998 488.342 477.766 487.911C477.641 487.747 477.574 487.546 477.574 487.34C477.574 487.134 477.641 486.933 477.766 486.769L479.587 485.395L477.932 482.249C477.806 482.047 477.746 481.811 477.761 481.573C477.776 481.336 477.864 481.109 478.015 480.924C478.313 480.692 478.776 480.924 479.041 481.421L480.697 484.567L482.518 483.176C482.783 482.994 483.18 483.176 483.396 483.606C483.507 483.781 483.557 483.988 483.539 484.194C483.521 484.401 483.436 484.596 483.296 484.749Z" fill="#C4FB28"/>
<path d="M321.994 216.783L334.164 209.762L334.28 209.679C340.34 206.252 348.635 206.765 357.824 212.08C366.434 217.048 374.282 225.326 380.193 234.88C387.032 245.907 391.32 258.656 391.32 270.098C391.32 280.777 387.595 288.311 381.551 291.771L369.183 298.842C363.09 302.733 354.463 302.385 344.909 296.871C326.398 286.175 311.397 260.196 311.397 238.837C311.414 227.76 315.487 220.094 321.994 216.783Z" fill="#C4FB28"/>
<path opacity="0.1" d="M369.447 298.809L381.567 291.871C387.611 288.361 391.336 280.86 391.336 270.197C391.336 258.756 387.048 246.007 380.21 234.979L367.278 242.447C374.116 253.458 378.405 266.207 378.405 277.631C378.438 287.765 375.027 295.067 369.447 298.809Z" fill="black"/>
<path opacity="0.4" d="M322.242 216.65C328.202 213.753 336.166 214.481 344.925 219.531C353.684 224.581 361.383 232.777 367.311 242.381L380.242 234.913C374.331 225.326 366.467 217.064 357.873 212.113C348.684 206.799 340.389 206.302 334.329 209.713L334.213 209.795L322.242 216.65Z" fill="white"/>
<path d="M352.327 248.242C352.303 249.531 352.578 250.809 353.129 251.975C353.681 253.141 354.494 254.164 355.506 254.964C357.261 255.974 358.685 254.616 358.685 251.918C358.708 250.628 358.433 249.35 357.882 248.184C357.33 247.018 356.517 245.995 355.506 245.195C353.75 244.169 352.327 245.543 352.327 248.242Z" fill="#455A64"/>
<path d="M334.229 237.794C334.206 239.084 334.481 240.361 335.032 241.527C335.584 242.693 336.397 243.716 337.408 244.516C339.164 245.526 340.587 244.169 340.587 241.47C340.611 240.18 340.336 238.903 339.785 237.737C339.233 236.571 338.42 235.548 337.408 234.747C335.653 233.737 334.229 235.095 334.229 237.794Z" fill="#455A64"/>
<path d="M363.139 288.609C363.265 288.625 363.393 288.625 363.519 288.609C363.754 288.562 363.977 288.468 364.175 288.334C364.373 288.2 364.543 288.028 364.674 287.827C364.805 287.627 364.895 287.403 364.938 287.167C364.981 286.932 364.978 286.69 364.927 286.457C362.046 272.764 354.711 260.776 346.25 255.891C344.527 254.748 342.561 254.023 340.508 253.776C338.455 253.529 336.373 253.766 334.428 254.468C330.438 256.123 327.358 260.114 325.768 265.776C325.688 266.227 325.779 266.691 326.023 267.078C326.267 267.465 326.646 267.748 327.087 267.87C327.528 267.992 327.999 267.945 328.407 267.739C328.816 267.532 329.132 267.181 329.295 266.753C330.554 262.216 332.872 259.054 335.802 257.845C337.233 257.376 338.752 257.242 340.242 257.455C341.732 257.667 343.153 258.22 344.396 259.071C351.88 263.392 358.685 274.701 361.317 287.218C361.419 287.622 361.654 287.98 361.985 288.232C362.316 288.485 362.722 288.618 363.139 288.609Z" fill="#455A64"/>
<path d="M321.993 110.848L334.163 103.827H334.279C340.339 100.4 348.634 100.913 357.824 106.228C366.434 111.195 374.282 119.474 380.193 129.028C387.031 140.055 391.32 152.804 391.32 164.246C391.32 174.925 387.594 182.459 381.551 185.919L369.182 192.989C363.089 196.88 354.463 196.533 344.909 191.019C326.398 180.323 311.397 154.344 311.397 133.068C311.413 121.825 315.486 114.159 321.993 110.848Z" fill="#C4FB28"/>
<path opacity="0.1" d="M369.447 192.84L381.567 185.903C387.611 182.393 391.336 174.892 391.336 164.229C391.336 152.788 387.048 140.039 380.21 129.011L367.278 136.479C374.116 147.489 378.405 160.239 378.405 171.663C378.438 181.83 375.027 189.132 369.447 192.84Z" fill="black"/>
<path opacity="0.4" d="M322.242 110.715C328.202 107.818 336.166 108.546 344.925 113.596C353.684 118.646 361.383 126.842 367.311 136.446L380.242 128.978C374.331 119.391 366.467 111.129 357.873 106.178C348.684 100.863 340.389 100.367 334.329 103.778H334.213L322.242 110.715Z" fill="white"/>
<path d="M352.525 177.425C354.098 177.43 355.656 177.126 357.112 176.531C361.433 174.759 364.745 170.438 366.45 164.328C366.566 163.834 366.485 163.314 366.227 162.877C365.968 162.44 365.551 162.12 365.062 161.983C364.573 161.847 364.05 161.904 363.602 162.143C363.154 162.383 362.816 162.786 362.659 163.269C361.284 168.236 358.784 171.547 355.622 172.888C354.075 173.405 352.43 173.555 350.815 173.328C349.201 173.101 347.661 172.503 346.316 171.58C338.253 166.928 330.901 154.708 328.103 141.197C327.992 140.688 327.684 140.243 327.248 139.958C326.811 139.673 326.28 139.571 325.768 139.674C325.515 139.727 325.275 139.83 325.061 139.976C324.847 140.122 324.664 140.309 324.523 140.526C324.382 140.743 324.284 140.985 324.236 141.24C324.189 141.494 324.192 141.755 324.245 142.009C327.358 156.778 335.272 169.726 344.396 175.008C346.85 176.506 349.652 177.339 352.525 177.425Z" fill="#455A64"/>
<path d="M352.89 144.641C352.866 146.035 353.162 147.415 353.756 148.675C354.351 149.936 355.227 151.042 356.317 151.91C358.221 153.003 359.744 151.529 359.744 148.599C359.772 147.207 359.477 145.828 358.882 144.57C358.288 143.312 357.41 142.208 356.317 141.347C354.429 140.254 352.89 141.727 352.89 144.641Z" fill="#455A64"/>
<path d="M333.352 133.366C333.328 134.757 333.625 136.134 334.219 137.392C334.813 138.65 335.689 139.754 336.779 140.618C338.667 141.711 340.207 140.237 340.207 137.306C340.231 135.916 339.934 134.538 339.34 133.28C338.745 132.023 337.869 130.919 336.779 130.054C334.892 128.961 333.352 130.452 333.352 133.366Z" fill="#455A64"/>
<path d="M297.091 409.015L384.846 459.681C385.728 460.13 386.704 460.364 387.694 460.364C388.683 460.364 389.659 460.13 390.541 459.681L395.194 456.982C396.028 456.438 396.721 455.705 397.216 454.841C397.711 453.978 397.994 453.009 398.042 452.015V350.683C397.994 349.689 397.711 348.72 397.216 347.857C396.721 346.993 396.028 346.259 395.194 345.716L307.439 295.05C306.56 294.601 305.587 294.366 304.6 294.366C303.613 294.366 302.639 294.601 301.76 295.05L297.108 297.765C296.272 298.307 295.578 299.04 295.082 299.904C294.587 300.768 294.305 301.738 294.26 302.732V404.081C294.311 405.068 294.594 406.029 295.086 406.886C295.578 407.743 296.265 408.473 297.091 409.015Z" fill="#455A64"/>
<path d="M385.326 459.896C386.161 460.231 387.058 460.386 387.957 460.348C388.856 460.311 389.737 460.084 390.541 459.681L395.194 456.965C396.028 456.423 396.719 455.689 397.212 454.825C397.704 453.961 397.983 452.992 398.025 451.998V350.666C398.001 349.672 397.715 348.701 397.198 347.852L386.866 353.862C387.376 354.709 387.661 355.672 387.694 356.66V457.992C387.694 459.664 386.684 460.426 385.326 459.896Z" fill="#263238"/>
<path d="M297.091 409.015L384.846 459.681C386.419 460.592 387.694 459.863 387.694 458.025V356.76C387.646 355.765 387.363 354.797 386.867 353.933C386.372 353.07 385.679 352.336 384.846 351.792L297.091 301.126C295.518 300.216 294.243 300.961 294.243 302.782V404.13C294.304 405.11 294.593 406.062 295.088 406.911C295.582 407.759 296.268 408.479 297.091 409.015Z" fill="#37474F"/>
<path fill-rule="evenodd" clip-rule="evenodd" d="M343.369 383.765L367.212 417.542C356.681 428.188 336.415 420.191 321.944 399.677C313.251 387.374 308.582 374.095 308.582 361.694L337.442 378.284C339.732 379.739 341.74 381.596 343.369 383.765Z" fill="#C4FB28"/>
<path opacity="0.3" fill-rule="evenodd" clip-rule="evenodd" d="M343.369 383.765L367.212 417.542C356.681 428.188 336.415 420.191 321.944 399.677C313.251 387.374 308.582 374.095 308.582 361.694L337.442 378.284C339.732 379.739 341.74 381.596 343.369 383.765Z" fill="black"/>
<path d="M368.421 416.681L344.578 382.904C342.826 380.578 340.659 378.597 338.187 377.059L309.327 360.402C309.101 360.271 308.843 360.202 308.582 360.203C308.32 360.203 308.063 360.272 307.837 360.402C307.61 360.533 307.422 360.722 307.291 360.948C307.16 361.175 307.092 361.432 307.092 361.694C307.092 374.476 311.811 387.921 320.719 400.538C330.305 414.115 342.624 422.758 353.668 423.718C356.328 424.026 359.023 423.729 361.552 422.849C364.081 421.968 366.378 420.528 368.272 418.635C368.5 418.403 368.647 418.103 368.689 417.78C368.731 417.457 368.666 417.129 368.504 416.847C368.494 416.784 368.465 416.726 368.421 416.681ZM310.138 364.31L336.63 379.642C338.735 380.956 340.586 382.639 342.094 384.609L365.192 417.31C363.624 418.595 361.813 419.55 359.867 420.119C357.921 420.688 355.88 420.859 353.867 420.622C343.833 419.794 332.044 411.416 323.119 398.749C321.596 396.613 320.222 394.444 318.964 392.275C313.865 383.776 310.842 374.196 310.138 364.31Z" fill="white"/>
<path fill-rule="evenodd" clip-rule="evenodd" d="M342.293 376.513L351.019 350.6C368.04 366.81 377.362 393.302 371.832 409.76C370.943 412.685 369.364 415.354 367.229 417.542L343.386 383.765C342.71 382.698 342.264 381.502 342.076 380.254C341.887 379.005 341.962 377.731 342.293 376.513Z" fill="#C4FB28"/>
<path d="M352.029 349.524C351.851 349.349 351.631 349.223 351.391 349.156C351.15 349.09 350.897 349.085 350.654 349.143C350.412 349.207 350.188 349.33 350.003 349.5C349.819 349.67 349.678 349.883 349.595 350.12L340.886 376.032C340.482 377.473 340.385 378.982 340.602 380.463C340.818 381.943 341.344 383.361 342.144 384.626L365.92 418.403C366.05 418.576 366.213 418.72 366.402 418.826C366.59 418.931 366.798 418.996 367.013 419.016C367.232 419.038 367.452 419.011 367.659 418.937C367.865 418.862 368.052 418.742 368.205 418.585C370.493 416.258 372.196 413.42 373.173 410.306C377.196 398.335 373.62 381.215 365.043 366.363C361.533 360.156 357.15 354.485 352.029 349.524ZM344.578 382.904C344.04 382.026 343.687 381.047 343.539 380.028C343.391 379.009 343.451 377.971 343.717 376.976L351.664 353.332C367.195 369.26 375.573 393.898 370.408 409.296C369.747 411.413 368.709 413.394 367.344 415.141L344.578 382.904Z" fill="white"/>
<path fill-rule="evenodd" clip-rule="evenodd" d="M338.617 377.043L314.774 343.265C323.186 334.755 337.392 337.619 351.002 350.6L342.293 376.513C341.581 378.665 339.925 378.897 338.617 377.043Z" fill="#C4FB28"/>
<path opacity="0.1" fill-rule="evenodd" clip-rule="evenodd" d="M338.617 377.043L314.774 343.265C323.186 334.755 337.392 337.619 351.002 350.6L342.293 376.513C341.581 378.665 339.925 378.897 338.617 377.043Z" fill="black"/>
<path d="M352.029 349.524C337.789 335.947 322.739 333.082 313.715 342.222C313.468 342.47 313.317 342.796 313.287 343.144C313.256 343.492 313.349 343.84 313.549 344.126L337.409 377.903C337.703 378.563 338.205 379.108 338.838 379.456C339.47 379.804 340.2 379.935 340.914 379.83C341.629 379.725 342.289 379.389 342.795 378.874C343.301 378.359 343.625 377.692 343.717 376.976L352.426 351.064C352.491 350.864 352.513 350.654 352.49 350.445C352.468 350.237 352.401 350.036 352.294 349.855C352.229 349.727 352.139 349.615 352.029 349.524ZM316.745 343.514C324.477 336.891 337.028 339.722 349.297 351.064L340.886 376.066C340.794 376.344 340.66 376.607 340.488 376.844C340.219 376.698 339.995 376.48 339.843 376.215L316.745 343.514Z" fill="white"/>
<path fill-rule="evenodd" clip-rule="evenodd" d="M337.442 378.284L308.582 361.727C308.582 353.448 310.569 347.57 314.774 343.298L338.617 377.075C339.925 378.897 339.429 379.476 337.442 378.284Z" fill="#C4FB28"/>
<path opacity="0.2" fill-rule="evenodd" clip-rule="evenodd" d="M337.442 378.284L308.582 361.727C308.582 353.448 310.569 347.57 314.774 343.298L338.617 377.075C339.925 378.897 339.429 379.476 337.442 378.284Z" fill="black"/>
<path d="M339.843 376.181L315.983 342.404C315.857 342.228 315.694 342.082 315.505 341.976C315.316 341.87 315.106 341.807 314.89 341.792C314.675 341.77 314.457 341.798 314.253 341.872C314.05 341.947 313.866 342.066 313.715 342.222C309.195 346.792 307.092 352.984 307.092 361.694C307.092 361.955 307.16 362.213 307.291 362.439C307.422 362.666 307.61 362.854 307.837 362.985L336.68 379.642C337.309 380.006 339.197 381.099 340.356 379.824C340.68 379.398 340.855 378.877 340.855 378.342C340.855 377.807 340.68 377.287 340.356 376.86L339.843 376.181ZM314.592 345.666L335.803 375.718L310.039 360.816C310.205 354.243 311.662 349.358 314.592 345.666Z" fill="white"/>
<path d="M113.005 256.587C114.536 255.848 116.22 255.48 117.919 255.511C119.619 255.543 121.288 255.974 122.79 256.769L273.695 343.894C275.151 344.86 276.358 346.155 277.221 347.674C278.084 349.192 278.578 350.892 278.663 352.637V395.686C278.728 397.408 278.322 399.115 277.49 400.624C276.657 402.133 275.428 403.385 273.936 404.247C272.444 405.109 270.744 405.548 269.022 405.515C267.299 405.483 265.617 404.982 264.158 404.064L113.253 316.939C111.798 315.973 110.59 314.678 109.728 313.16C108.865 311.641 108.371 309.941 108.286 308.197V265.147C108.346 263.45 108.805 261.791 109.625 260.304C110.444 258.817 111.602 257.544 113.005 256.587Z" fill="#263238"/>
<path d="M108.336 264.236C108.75 261.686 110.819 260.792 113.303 262.249L176.222 298.56L264.208 349.358C265.701 350.285 266.933 351.579 267.784 353.117L277.255 347.653C276.405 346.115 275.181 344.817 273.695 343.878L122.791 256.769C121.401 255.887 119.805 255.385 118.161 255.313C116.517 255.24 114.882 255.599 113.42 256.354C111.958 257.11 110.719 258.235 109.827 259.618C108.935 261 108.421 262.593 108.336 264.236Z" fill="#455A64"/>
<path d="M269.274 358.101V401.15C269.274 404.362 267.006 405.67 264.224 404.064L113.319 316.939C111.864 315.973 110.657 314.678 109.794 313.16C108.931 311.641 108.437 309.941 108.352 308.196V265.147C108.352 261.935 110.604 260.627 113.319 262.233L176.238 298.56L264.241 349.358C265.707 350.318 266.927 351.609 267.802 353.128C268.676 354.647 269.181 356.351 269.274 358.101Z" fill="#37474F"/>
<path d="M243.61 351.792L241.143 357.025C241.115 357.1 241.071 357.168 241.014 357.225C240.958 357.282 240.89 357.327 240.815 357.357C240.74 357.386 240.66 357.4 240.58 357.397C240.5 357.394 240.421 357.374 240.349 357.339L234.835 355.236C233.957 354.889 233.61 356.13 234.239 357.323L238.229 364.807C238.47 365.241 238.579 365.735 238.544 366.231L237.6 373.019C237.451 374.095 238.362 375.503 239.14 375.403L244.107 374.791C244.307 374.8 244.502 374.858 244.675 374.959C244.848 375.06 244.994 375.201 245.101 375.37L250.068 381.679C250.846 382.672 251.723 382.308 251.608 381.066L250.664 373.201C250.623 373.01 250.63 372.811 250.685 372.623C250.739 372.435 250.84 372.264 250.978 372.125L254.969 369.244C255.598 368.78 255.25 367.141 254.373 366.479L248.859 362.224C248.473 361.901 248.195 361.468 248.064 360.982L245.597 352.902C245.051 351.627 244.008 350.981 243.61 351.792Z" fill="#C4FB28"/>
<path d="M215.711 335.831L213.244 341.063C213.218 341.14 213.175 341.21 213.119 341.269C213.063 341.327 212.994 341.373 212.919 341.403C212.843 341.433 212.762 341.446 212.681 341.442C212.6 341.437 212.521 341.415 212.449 341.378L206.936 339.275C206.058 338.927 205.71 340.169 206.339 341.361L210.28 348.845C210.522 349.285 210.631 349.785 210.595 350.286L209.651 357.058C209.502 358.134 210.413 359.541 211.191 359.442L216.158 358.846C216.358 358.847 216.554 358.9 216.728 358.999C216.902 359.097 217.047 359.238 217.152 359.409L222.119 365.717C222.897 366.711 223.775 366.363 223.659 365.104L222.715 357.24C222.674 357.048 222.681 356.85 222.736 356.662C222.791 356.474 222.892 356.302 223.029 356.163L227.02 353.282C227.649 352.819 227.301 351.196 226.424 350.517L220.91 346.262C220.524 345.94 220.246 345.506 220.115 345.02L217.648 336.94C217.234 335.649 216.108 335.003 215.711 335.831Z" fill="#C4FB28"/>
<path d="M187.812 319.87L185.345 325.102C185.316 325.177 185.272 325.245 185.216 325.302C185.159 325.359 185.091 325.404 185.017 325.434C184.942 325.463 184.862 325.477 184.781 325.474C184.701 325.471 184.622 325.451 184.55 325.416L179.036 323.297C178.159 322.966 177.811 324.191 178.44 325.383L182.431 332.867C182.67 333.308 182.78 333.807 182.745 334.308L181.801 341.08C181.652 342.156 182.563 343.58 183.341 343.481L188.308 342.868C188.509 342.877 188.703 342.935 188.876 343.036C189.049 343.137 189.195 343.278 189.302 343.447L194.269 349.739C195.047 350.749 195.925 350.385 195.809 349.143L194.865 341.278C194.824 341.084 194.831 340.883 194.886 340.693C194.941 340.502 195.042 340.328 195.18 340.186L199.17 337.305C199.799 336.858 199.452 335.218 198.574 334.539L193.06 330.284C192.674 329.962 192.397 329.528 192.266 329.042L189.799 320.962C189.335 319.687 188.209 319.025 187.812 319.87Z" fill="#C4FB28"/>
<path d="M159.912 303.891L157.445 309.124C157.417 309.199 157.373 309.267 157.316 309.324C157.26 309.381 157.192 309.426 157.117 309.456C157.042 309.485 156.962 309.499 156.882 309.496C156.802 309.493 156.723 309.473 156.65 309.438L151.137 307.319C150.259 306.988 149.912 308.213 150.541 309.405L154.531 316.889C154.771 317.329 154.88 317.829 154.846 318.33L153.902 325.102C153.753 326.178 154.664 327.602 155.442 327.502L160.409 326.89C160.609 326.899 160.804 326.957 160.977 327.058C161.15 327.159 161.296 327.3 161.403 327.469L166.37 333.761C167.148 334.771 168.025 334.407 167.91 333.165L166.966 325.3C166.924 325.109 166.932 324.91 166.987 324.722C167.041 324.534 167.142 324.363 167.28 324.224L171.271 321.343C171.9 320.879 171.552 319.24 170.675 318.561L165.161 314.323C164.782 313.994 164.506 313.563 164.366 313.081L161.899 305.001C161.436 303.776 160.31 303.064 159.912 303.891Z" fill="#C4FB28"/>
<path d="M132.013 287.914L129.546 293.146C129.517 293.221 129.473 293.289 129.417 293.346C129.36 293.404 129.292 293.448 129.218 293.478C129.143 293.507 129.063 293.521 128.982 293.518C128.902 293.515 128.823 293.495 128.751 293.46L123.237 291.357C122.36 291.01 122.012 292.252 122.641 293.444L126.632 300.928C126.872 301.362 126.981 301.857 126.946 302.352L126.002 309.14C125.853 310.216 126.764 311.624 127.542 311.524L132.509 310.912C132.71 310.921 132.904 310.979 133.077 311.08C133.25 311.181 133.396 311.322 133.503 311.491L138.47 317.8C139.248 318.793 140.126 318.429 140.01 317.187L139.066 309.322C139.025 309.131 139.032 308.932 139.087 308.744C139.142 308.556 139.243 308.385 139.381 308.246L143.305 305.431C143.934 304.968 143.586 303.329 142.709 302.666L137.195 298.411C136.809 298.088 136.532 297.655 136.4 297.169L133.933 289.089C133.536 287.731 132.46 287.086 132.013 287.914Z" fill="#C4FB28"/>
<path d="M247.766 324.257L256.045 319.489C256.209 319.415 256.348 319.294 256.442 319.141L257.966 316.492L252.998 313.66L253.147 314.091L247.766 324.257Z" fill="#C4FB28"/>
<path opacity="0.2" d="M247.766 324.257L256.045 319.489C256.209 319.415 256.348 319.294 256.442 319.141L257.966 316.492L252.998 313.66L253.147 314.091L247.766 324.257Z" fill="black"/>
<path d="M253.777 314.058L248.048 323.992C247.968 324.136 247.848 324.252 247.702 324.329C247.557 324.405 247.392 324.437 247.229 324.421C247.066 324.405 246.91 324.342 246.782 324.24C246.654 324.137 246.559 323.999 246.508 323.843L240.464 306.408L253.777 314.058Z" fill="#C4FB28"/>
<path d="M109.28 175.621C109.352 174.236 109.752 172.889 110.445 171.689C111.139 170.489 112.107 169.47 113.27 168.716C114.508 168.095 115.875 167.772 117.26 167.772C118.646 167.772 120.012 168.095 121.251 168.716L274.672 257.249C275.834 258.008 276.8 259.031 277.494 260.233C278.187 261.435 278.587 262.784 278.663 264.17V314.67C278.587 316.056 278.187 317.405 277.494 318.607C276.8 319.81 275.834 320.832 274.672 321.591C273.436 322.22 272.069 322.547 270.682 322.547C269.295 322.547 267.928 322.22 266.692 321.591L112.889 232.81C109.296 230.757 109.263 228.704 109.263 226.187L109.28 175.621Z" fill="#C4FB28"/>
<path opacity="0.2" d="M278.729 314.654C278.654 316.04 278.253 317.388 277.56 318.591C276.867 319.793 275.9 320.815 274.738 321.575C273.615 322.147 272.384 322.474 271.125 322.534C269.866 322.594 268.609 322.386 267.436 321.923C269.307 322.635 270.748 321.558 270.748 319.273V268.757C270.702 267.369 270.297 266.017 269.572 264.832L277.57 260.213C278.281 261.408 278.68 262.764 278.729 264.154V314.654Z" fill="black"/>
<path opacity="0.4" d="M109.462 174.495C109.925 172.839 111.482 172.259 113.319 173.319L266.758 261.852C267.942 262.58 268.913 263.609 269.573 264.832L277.553 260.213C276.88 258.999 275.912 257.974 274.738 257.233L121.317 168.716C120.08 168.088 118.713 167.76 117.326 167.76C115.94 167.76 114.572 168.088 113.336 168.716C112.33 169.364 111.468 170.211 110.802 171.205C110.135 172.199 109.679 173.318 109.462 174.495Z" fill="white"/>
<path d="M259.953 269.651L122.178 189.943C120.837 189.181 119.744 189.529 119.744 190.738C119.843 191.482 120.114 192.193 120.537 192.814C120.96 193.435 121.522 193.949 122.178 194.314L259.953 273.972C261.277 274.75 262.37 274.403 262.37 273.194C262.266 272.458 261.993 271.755 261.574 271.141C261.155 270.526 260.6 270.016 259.953 269.651Z" fill="#455A64"/>
<path d="M259.953 292.185L141.782 223.969C140.441 223.19 139.365 223.538 139.365 224.747C139.462 225.492 139.731 226.204 140.15 226.828C140.57 227.451 141.128 227.969 141.782 228.34L259.953 296.54C261.277 297.318 262.37 296.954 262.37 295.745C262.26 295.009 261.985 294.306 261.567 293.69C261.148 293.074 260.597 292.56 259.953 292.185Z" fill="#455A64"/>
<path d="M259.953 303.146L124.993 225.128C123.668 224.349 122.575 224.714 122.575 225.922C122.683 226.662 122.957 227.368 123.375 227.987C123.794 228.606 124.347 229.123 124.993 229.499L259.953 307.501C261.277 308.279 262.37 307.932 262.37 306.723C262.271 305.981 262.001 305.271 261.581 304.651C261.162 304.031 260.604 303.516 259.953 303.146Z" fill="#455A64"/>
<path d="M259.953 280.595L124.993 202.576C123.668 201.798 122.575 202.162 122.575 203.371C122.676 204.113 122.947 204.822 123.366 205.442C123.785 206.062 124.342 206.577 124.993 206.948L259.953 285.033C261.277 285.794 262.37 285.447 262.37 284.238C262.28 283.484 262.015 282.761 261.595 282.129C261.175 281.496 260.613 280.971 259.953 280.595Z" fill="#455A64"/>
<path d="M113.005 88.8428C114.536 88.1041 116.22 87.7356 117.919 87.7673C119.619 87.7989 121.288 88.2297 122.79 89.0249L273.695 176.134C275.148 177.103 276.353 178.398 277.216 179.916C278.078 181.434 278.574 183.133 278.663 184.876V227.926C278.728 229.648 278.322 231.355 277.49 232.863C276.657 234.372 275.428 235.625 273.936 236.487C272.444 237.348 270.744 237.787 269.022 237.755C267.299 237.723 265.617 237.221 264.158 236.304L113.253 149.178C111.798 148.212 110.59 146.918 109.728 145.399C108.865 143.881 108.371 142.18 108.286 140.436V97.3865C108.349 95.6924 108.809 94.0368 109.628 92.5528C110.448 91.0689 111.604 89.7981 113.005 88.8428Z" fill="#263238"/>
<path d="M108.336 96.4925C108.75 93.9426 110.819 93.0485 113.303 94.489L176.222 130.8L264.208 181.598C265.698 182.536 266.928 183.834 267.784 185.373L277.255 179.909C276.41 178.368 275.184 177.069 273.695 176.134L122.791 89.0251C121.401 88.1436 119.805 87.6416 118.161 87.5689C116.517 87.4962 114.882 87.8554 113.42 88.6107C111.958 89.366 110.719 90.491 109.827 91.8739C108.935 93.2567 108.421 94.8491 108.336 96.4925Z" fill="#455A64"/>
<path d="M269.274 190.357V233.406C269.274 236.618 267.006 237.926 264.224 236.32L113.319 149.195C111.864 148.229 110.657 146.934 109.794 145.416C108.931 143.897 108.437 142.197 108.352 140.453V97.4031C108.352 94.1909 110.604 92.8829 113.319 94.4889L176.238 130.8L264.241 181.614C265.707 182.574 266.927 183.866 267.802 185.384C268.676 186.903 269.181 188.607 269.274 190.357Z" fill="#37474F"/>
<path d="M243.61 184.065L241.143 189.297C241.115 189.372 241.071 189.441 241.014 189.498C240.958 189.555 240.89 189.6 240.815 189.629C240.74 189.659 240.66 189.673 240.58 189.67C240.5 189.667 240.421 189.647 240.349 189.612L234.835 187.492C233.957 187.161 233.61 188.403 234.239 189.579L238.229 197.063C238.469 197.503 238.578 198.003 238.544 198.503L237.6 205.275C237.451 206.351 238.362 207.775 239.14 207.676L244.107 207.063C244.307 207.073 244.502 207.13 244.675 207.231C244.848 207.332 244.994 207.473 245.101 207.643L250.068 213.935C250.846 214.945 251.723 214.58 251.608 213.339L250.664 205.474C250.623 205.282 250.63 205.084 250.685 204.896C250.739 204.708 250.84 204.537 250.978 204.398L254.969 201.517C255.598 201.053 255.25 199.414 254.373 198.735L248.859 194.496C248.477 194.17 248.2 193.738 248.064 193.254L245.597 185.174C245.051 183.883 244.008 183.237 243.61 184.065Z" fill="#C4FB28"/>
<path d="M215.711 168.087L213.244 173.319C213.215 173.394 213.171 173.463 213.115 173.52C213.058 173.577 212.991 173.622 212.916 173.651C212.841 173.681 212.761 173.695 212.681 173.692C212.6 173.689 212.522 173.669 212.449 173.634L206.936 171.531C206.058 171.183 205.71 172.425 206.339 173.617L210.28 181.101C210.521 181.535 210.63 182.03 210.595 182.525L209.651 189.314C209.502 190.39 210.413 191.797 211.191 191.698L216.158 191.085C216.358 191.095 216.553 191.152 216.726 191.253C216.899 191.354 217.045 191.495 217.152 191.665L222.119 197.973C222.897 198.967 223.775 198.619 223.659 197.361L222.715 189.496C222.674 189.304 222.681 189.106 222.736 188.918C222.791 188.73 222.892 188.559 223.029 188.42L227.02 185.539C227.649 185.075 227.301 183.436 226.424 182.773L220.91 178.518C220.524 178.196 220.246 177.762 220.115 177.276L217.648 169.196C217.234 167.905 216.108 167.259 215.711 168.087Z" fill="#C4FB28"/>
<path d="M187.812 152.109L185.345 157.358C185.316 157.433 185.272 157.501 185.216 157.558C185.159 157.616 185.091 157.66 185.017 157.69C184.942 157.719 184.862 157.733 184.781 157.73C184.701 157.727 184.622 157.707 184.55 157.672L179.036 155.553C178.159 155.222 177.811 156.447 178.44 157.639L182.431 165.123C182.672 165.563 182.782 166.063 182.745 166.564L181.801 173.336C181.652 174.412 182.563 175.819 183.341 175.737L188.308 175.124C188.508 175.126 188.704 175.178 188.878 175.277C189.052 175.375 189.198 175.516 189.302 175.687L194.269 181.995C195.047 182.989 195.925 182.641 195.809 181.383L194.865 173.518C194.825 173.326 194.833 173.128 194.888 172.94C194.943 172.753 195.043 172.581 195.18 172.442L199.17 169.561C199.799 169.114 199.452 167.474 198.574 166.795L193.06 162.54C192.674 162.218 192.397 161.784 192.266 161.298L189.799 153.218C189.335 151.943 188.209 151.281 187.812 152.109Z" fill="#C4FB28"/>
<path d="M159.912 136.147L157.445 141.38C157.416 141.455 157.373 141.523 157.316 141.58C157.26 141.637 157.192 141.682 157.117 141.712C157.042 141.741 156.962 141.755 156.882 141.752C156.801 141.749 156.723 141.729 156.65 141.694L151.137 139.575C150.259 139.244 149.911 140.469 150.541 141.661L154.531 149.145C154.771 149.585 154.88 150.085 154.846 150.586L153.902 157.358C153.753 158.434 154.663 159.858 155.442 159.758L160.409 159.146C160.609 159.155 160.804 159.213 160.977 159.314C161.15 159.415 161.296 159.556 161.402 159.725L166.37 166.017C167.148 167.027 168.025 166.663 167.909 165.421L166.966 157.556C166.909 157.359 166.904 157.151 166.95 156.951C166.997 156.751 167.093 156.566 167.231 156.414L171.221 153.533C171.85 153.086 171.502 151.447 170.625 150.768L165.111 146.529C164.729 146.197 164.452 145.759 164.316 145.271L161.849 137.191C161.435 135.965 160.31 135.303 159.912 136.147Z" fill="#C4FB28"/>
<path d="M132.013 120.17L129.546 125.402C129.517 125.477 129.473 125.545 129.416 125.602C129.36 125.66 129.292 125.704 129.217 125.734C129.143 125.764 129.063 125.777 128.982 125.774C128.902 125.771 128.823 125.752 128.751 125.716L123.237 123.597C122.36 123.266 122.012 124.508 122.641 125.683L126.631 133.233C126.871 133.674 126.981 134.174 126.946 134.674L126.002 141.446C125.853 142.522 126.764 143.946 127.542 143.847L132.509 143.234C132.709 143.244 132.904 143.301 133.077 143.402C133.25 143.503 133.396 143.644 133.503 143.814L138.47 150.106C139.248 151.116 140.126 150.751 140.01 149.509L139.066 141.645C139.025 141.453 139.032 141.255 139.087 141.067C139.142 140.879 139.243 140.707 139.381 140.568L143.371 137.687C144 137.224 143.653 135.585 142.775 134.906L137.261 130.667C136.875 130.345 136.598 129.911 136.467 129.425L134 121.345C133.536 119.987 132.46 119.342 132.013 120.17Z" fill="#455A64"/>
<path d="M247.766 156.513L256.045 151.745C256.209 151.671 256.348 151.55 256.442 151.397L257.966 148.748L252.998 145.917L253.147 146.347L247.766 156.513Z" fill="#C4FB28"/>
<path opacity="0.2" d="M247.766 156.513L256.045 151.745C256.209 151.671 256.348 151.55 256.442 151.397L257.966 148.748L252.998 145.917L253.147 146.347L247.766 156.513Z" fill="black"/>
<path d="M253.777 146.314L248.048 156.248C247.968 156.392 247.848 156.509 247.702 156.585C247.557 156.661 247.392 156.693 247.229 156.677C247.066 156.661 246.91 156.598 246.782 156.496C246.654 156.393 246.559 156.255 246.508 156.099L240.464 138.664L253.777 146.314Z" fill="#C4FB28"/>
<path d="M109.279 7.8767C109.355 6.49085 109.755 5.14217 110.448 3.9398C111.142 2.73744 112.108 1.71515 113.27 0.955673C114.506 0.327441 115.873 0 117.26 0C118.647 0 120.014 0.327441 121.251 0.955673L274.738 89.4886C275.9 90.2481 276.867 91.2703 277.56 92.4727C278.253 93.6751 278.654 95.0238 278.729 96.4096V146.91C278.654 148.296 278.253 149.644 277.56 150.847C276.867 152.049 275.9 153.072 274.738 153.831C273.502 154.459 272.135 154.787 270.748 154.787C269.361 154.787 267.994 154.459 266.758 153.831L112.955 65.0332C109.362 62.9966 109.329 60.9435 109.329 58.4102L109.279 7.8767Z" fill="#C4FB28"/>
<path opacity="0.2" d="M278.729 146.91C278.654 148.296 278.253 149.644 277.56 150.847C276.867 152.049 275.9 153.071 274.738 153.831C273.616 154.405 272.383 154.731 271.123 154.788C269.864 154.845 268.607 154.632 267.436 154.162C269.307 154.874 270.748 153.814 270.748 151.529V101.013C270.7 99.6201 270.295 98.2633 269.572 97.0719L277.57 92.4689C278.281 93.6642 278.68 95.0195 278.729 96.4096V146.91Z" fill="black"/>
<path opacity="0.4" d="M109.462 6.75083C109.925 5.09508 111.482 4.51557 113.319 5.57525L266.758 94.1082C267.942 94.8365 268.913 95.8646 269.573 97.0885L277.553 92.469C276.88 91.2552 275.912 90.2304 274.738 89.4886L121.317 0.955708C120.078 0.335106 118.712 0.0119629 117.326 0.0119629C115.941 0.0119629 114.575 0.335106 113.336 0.955708C112.329 1.60575 111.465 2.45534 110.799 3.45205C110.132 4.44875 109.677 5.57144 109.462 6.75083Z" fill="white"/>
<path d="M259.953 101.89L122.178 22.1989C120.837 21.4372 119.744 21.7849 119.744 22.9936C119.843 23.7382 120.114 24.4494 120.537 25.0704C120.96 25.6913 121.522 26.2049 122.178 26.5701L259.953 106.261C261.277 107.039 262.37 106.692 262.37 105.483C262.265 104.741 261.992 104.032 261.574 103.409C261.155 102.787 260.601 102.268 259.953 101.89Z" fill="#455A64"/>
<path d="M259.953 124.425L141.782 56.208C140.441 55.4298 139.365 55.7775 139.365 56.9862C139.46 57.7297 139.729 58.4404 140.149 59.0614C140.569 59.6825 141.128 60.1966 141.782 60.5627L259.953 128.796C261.277 129.558 262.37 129.21 262.37 128.001C262.269 127.259 261.999 126.551 261.58 125.93C261.16 125.31 260.604 124.795 259.953 124.425Z" fill="#455A64"/>
<path d="M259.953 135.386L124.993 57.3835C123.668 56.6053 122.575 56.9696 122.575 58.1617C122.681 58.9042 122.953 59.6132 123.372 60.2355C123.79 60.8577 124.345 61.3771 124.993 61.7547L259.953 139.757C261.277 140.535 262.37 140.188 262.37 138.979C262.265 138.236 261.992 137.527 261.574 136.905C261.155 136.283 260.601 135.763 259.953 135.386Z" fill="#455A64"/>
<path d="M259.953 112.917L124.993 34.8985C123.668 34.1203 122.575 34.4845 122.575 35.6932C122.683 36.4328 122.957 37.1385 123.375 37.7578C123.794 38.377 124.347 38.8938 124.993 39.2697L259.953 117.272C261.277 118.05 262.37 117.702 262.37 116.494C262.271 115.752 262.001 115.042 261.581 114.422C261.162 113.801 260.604 113.286 259.953 112.917Z" fill="#455A64"/>
<path d="M202.697 417.194L144.663 405.819C144.296 405.759 143.921 405.813 143.586 405.975C143.252 406.136 142.975 406.396 142.794 406.72C142.613 407.044 142.537 407.416 142.575 407.785C142.613 408.154 142.764 408.503 143.007 408.783L182.364 453.356L202.697 417.194Z" fill="#FFA8A7"/>
<path d="M142.974 408.783C142.731 408.503 142.58 408.154 142.542 407.785C142.504 407.416 142.58 407.044 142.761 406.72C142.942 406.396 143.219 406.136 143.553 405.975C143.887 405.813 144.263 405.759 144.63 405.819L155.988 408.088C154.433 409.051 153.174 410.425 152.35 412.058C151.527 413.691 151.17 415.52 151.319 417.343V418.37L142.974 408.783Z" fill="#C4FB28"/>
<path d="M398.721 577.454L393.985 574.722L388.24 571.411L182.348 453.306C180.459 446.913 181.05 440.043 184.003 434.066C188.126 424.86 196.107 417.509 202.73 417.161L408.457 535.249L419.401 541.525C412.083 537.849 391.436 573.663 398.721 577.454Z" fill="#37474F"/>
<path d="M380.624 567.139L370.027 561.046C366.897 559.39 368.686 551.691 372.345 543.743C377.196 533.18 386.717 522.947 390.873 525.149L398.688 529.636L401.453 531.292C397.297 529.09 387.76 539.306 382.925 549.886C379.431 557.503 377.643 564.904 380.309 566.924C380.392 567.023 380.501 567.097 380.624 567.139Z" fill="#EBEBEB"/>
<path d="M377.991 565.599C370.722 561.741 391.535 525.861 398.82 529.736L409.433 535.796C402.165 531.954 381.286 567.801 388.621 571.659L377.991 565.599Z" fill="#C4FB28"/>
<path d="M398.721 577.454L388.24 571.461C381.071 567.719 400.873 532.948 408.457 535.249C408.609 535.278 408.755 535.334 408.887 535.415L419.401 541.525C412.083 537.849 391.435 573.663 398.721 577.454Z" fill="#EBEBEB"/>
<path opacity="0.15" d="M142.709 406.829L144.663 405.819L186.768 428.851L404.5 553.794C404.913 553.148 405.245 553.098 405.51 553.545C399.317 563.198 394.648 575.351 398.721 577.471L393.985 574.739L388.24 571.427L182.348 453.323L142.99 408.75C142.747 408.5 142.589 408.18 142.539 407.835C142.488 407.49 142.548 407.138 142.709 406.829Z" fill="black"/>
<path d="M443.211 602.903L398.721 577.454C395.608 575.799 397.33 568.215 400.923 560.317C405.741 549.737 415.229 539.405 419.401 541.525L464.073 567.04C472.948 572.156 464.785 591.396 454.9 600.006C451.225 603.301 447.052 604.741 443.211 602.903Z" fill="#F28F8F"/>
<path opacity="0.1" d="M440.562 589.111C443.112 579.077 451.225 569.242 458.692 567.139C459.789 566.751 460.962 566.631 462.114 566.79C463.267 566.948 464.364 567.38 465.315 568.05C471.938 574.259 464.206 591.909 454.851 600.055C451.258 603.234 447.234 604.658 443.393 602.986C440.115 601.032 438.774 595.899 440.562 589.111Z" fill="black"/>
</svg>
