<svg width="46" height="72" viewBox="0 0 46 72" fill="none" xmlns="http://www.w3.org/2000/svg">
<path d="M22.9999 71.5765C21.6658 71.5765 20.7764 70.6871 20.7764 69.353V56.0118C20.7764 54.6777 25.2234 54.6777 25.2234 56.0118V69.353C25.2234 70.6871 24.334 71.5765 22.9999 71.5765Z" fill="white"/>
<path d="M22.9999 58.2357C10.5482 58.2357 0.764648 48.4522 0.764648 36.0004V33.7769C0.764648 32.4428 1.65406 31.5534 2.98818 31.5534C4.3223 31.5534 5.21171 32.4428 5.21171 33.7769V36.0004C5.21171 45.784 13.2164 53.7887 22.9999 53.7887C32.7835 53.7887 40.7882 45.784 40.7882 36.0004V33.7769C40.7882 32.4428 41.6776 31.5534 43.0117 31.5534C44.3458 31.5534 45.2352 32.4428 45.2352 33.7769V36.0004C45.2352 48.4522 35.4517 58.2357 22.9999 58.2357ZM34.1176 18.2122H25.2235C23.8894 18.2122 22.9999 17.3228 22.9999 15.9887C22.9999 14.6545 23.8894 13.7651 25.2235 13.7651H34.1176C35.4517 13.7651 35.4517 18.2122 34.1176 18.2122ZM34.1176 27.1063H25.2235C23.8894 27.1063 22.9999 26.2169 22.9999 24.8828C22.9999 23.5487 23.8894 22.6593 25.2235 22.6593H34.1176C35.4517 22.6593 35.4517 27.1063 34.1176 27.1063Z" fill="white"/>
<path d="M34.1176 35.9998H25.2235C23.8894 35.9998 23 35.1104 23 33.7763C23 32.4421 23.8894 31.5527 25.2235 31.5527H34.1176C35.4518 31.5527 35.4518 35.9998 34.1176 35.9998Z" fill="white"/>
<path d="M22.9999 49.3415C15.4399 49.3415 9.65869 43.5603 9.65869 36.0003V24.8827C9.65869 23.5485 10.5481 22.6591 11.8822 22.6591C13.2163 22.6591 14.1058 23.5485 14.1058 24.8827V36.0003C14.1058 40.8921 18.1081 44.8944 22.9999 44.8944C27.8916 44.8944 31.894 40.8921 31.894 36.0003V13.765C31.894 8.87324 27.8916 4.87089 22.9999 4.87089C18.1081 4.87089 14.1058 8.87324 14.1058 13.765V15.9885C14.1058 17.3227 13.2163 18.2121 11.8822 18.2121C10.5481 18.2121 9.65869 17.3227 9.65869 15.9885V13.765C9.65869 6.205 15.4399 0.423828 22.9999 0.423828C30.5599 0.423828 36.341 6.205 36.341 13.765V36.0003C36.341 43.5603 30.5599 49.3415 22.9999 49.3415Z" fill="white"/>
</svg>
