<svg width="248" height="319" viewBox="0 0 248 319" fill="none" xmlns="http://www.w3.org/2000/svg">
<path d="M13.3962 284.899L13.0545 318.016H0.0856857V301.458L0.256503 284.899H13.3962Z" fill="#FDC475"/>
<path d="M165.309 85.0498H177.449C182.276 85.0498 186.905 86.9273 190.318 90.2693C193.732 93.6113 195.649 98.1441 195.649 102.87V102.87C195.649 107.597 193.732 112.129 190.318 115.471C186.905 118.813 182.276 120.691 177.449 120.691H165.309V85.0498ZM81.8731 85.7923L69.737 85.0498C64.9096 85.0492 60.2796 86.9264 56.8657 90.2684C53.4517 93.6105 51.5335 98.1435 51.5329 102.87V102.87C51.5335 107.597 53.4517 112.13 56.8657 115.472C60.2796 118.814 64.9096 120.692 69.737 120.691L81.8731 121.434" fill="#FDC475"/>
<path d="M247.853 230.297V316.319H-7.62939e-06V299.76L0.170649 283.202L0.696428 231.23C0.806895 220.504 4.86461 210.176 12.1248 202.143C19.385 194.11 29.3605 188.911 40.2203 187.499L98.9417 179.863L123.592 176.659L130.661 177.451L148.242 179.413L207.495 186.026C218.601 187.263 228.853 192.46 236.297 200.625C243.74 208.79 247.854 219.352 247.853 230.297Z" fill="#E5303E"/>
<path d="M130.661 177.45L112.081 179.863L53.36 187.499C42.5002 188.911 32.5247 194.11 25.2645 202.143C18.0043 210.176 13.9466 220.504 13.8361 231.23L13.3103 283.202H0.17067L0.696449 231.23C0.806915 220.504 4.86463 210.176 12.1248 202.143C19.385 194.11 29.3605 188.911 40.2203 187.499L98.9417 179.863L123.592 176.659L130.661 177.45Z" fill="#B72732"/>
<path d="M148.242 155.539V183.433C148.241 189.834 145.644 195.973 141.021 200.499C136.399 205.026 130.129 207.569 123.592 207.569H123.585C120.348 207.569 117.143 206.944 114.153 205.731C111.163 204.518 108.446 202.74 106.158 200.498C103.869 198.257 102.054 195.596 100.816 192.668C99.5781 189.74 98.9411 186.602 98.9416 183.433V155.539H148.242Z" fill="#FFDAA7"/>
<path d="M112.079 183.431V155.541H98.9394V183.431C98.9395 189.832 101.536 195.971 106.159 200.497C110.781 205.024 117.051 207.566 123.588 207.566H123.594C125.813 207.566 128.022 207.272 130.161 206.693C124.964 205.286 120.381 202.249 117.115 198.047C113.849 193.846 112.08 188.712 112.079 183.431Z" fill="#FDC475"/>
<path d="M202.304 316.318V283.202L204.859 283.204H247.854L247.853 316.318H202.304Z" fill="#FFDAA7"/>
<path d="M44.9445 283.202L44.9373 316.318H0.000305176V299.76L0.17046 283.202H44.9445Z" fill="#FFDAA7"/>
<path d="M44.9445 283.202L44.9373 316.318H12.9691L13.3101 283.202H44.9445Z" fill="#FFDAA7"/>
<path d="M148.242 155.539V173.513C140.728 177.695 132.234 179.894 123.592 179.894C114.949 179.894 106.455 177.695 98.9416 173.513V155.539H148.242Z" fill="#FDC475"/>
<path d="M173.403 58.0725V117.626C173.389 130.553 168.135 142.946 158.795 152.082C149.455 161.218 136.793 166.35 123.591 166.35C110.389 166.35 97.7268 161.218 88.3868 152.082C79.0467 142.946 73.7927 130.553 73.7791 117.626V58.0725" fill="#FFDAA7"/>
<path d="M86.9191 117.626V58.0725H73.7791V117.626C73.7712 124.576 75.2823 131.447 78.2109 137.778C81.1396 144.109 85.418 149.752 90.7587 154.33C96.0993 158.908 102.379 162.313 109.175 164.318C115.971 166.323 123.127 166.88 130.161 165.953C118.196 164.396 107.216 158.638 99.2625 149.748C91.3087 140.859 86.9223 129.444 86.9191 117.626Z" fill="#FDC475"/>
<path d="M69.929 9.89828L62.0939 0.694231C61.8345 0.389591 61.4856 0.170579 61.0947 0.0669923C60.7037 -0.0365938 60.2896 -0.0197231 59.9088 0.115309C59.528 0.250341 59.1989 0.496976 58.9663 0.821659C58.7337 1.14634 58.6089 1.5333 58.6089 1.92989V37.0551C58.6089 40.7902 59.3603 44.4888 60.8201 47.9397C62.2799 51.3905 64.4195 54.526 67.1169 57.1672C69.8143 59.8084 73.0165 61.9035 76.5408 63.3328C80.065 64.7622 83.8423 65.4979 87.657 65.4979H173.403V33.7267C173.403 29.7881 171.805 26.0108 168.96 23.2258C166.116 20.4408 162.259 18.8762 158.236 18.8762H89.508C85.772 18.8762 82.0816 18.072 78.6982 16.5206C75.3148 14.9691 72.3211 12.7083 69.929 9.89828Z" fill="#3C3B41"/>
<path d="M71.7487 37.0551V11.8161C71.1083 11.2085 70.501 10.5684 69.9292 9.89829L62.094 0.694223C61.8347 0.389586 61.4858 0.170575 61.0949 0.0669906C60.7039 -0.0365939 60.2898 -0.0197223 59.909 0.11531C59.5282 0.250342 59.1991 0.496978 58.9665 0.82166C58.7339 1.14634 58.6091 1.5333 58.6091 1.92989V37.0551C58.6091 44.5986 61.6695 51.8332 67.1171 57.1673C72.5647 62.5014 79.9532 65.498 87.6572 65.498H100.804C96.9888 65.4985 93.211 64.7631 89.6861 63.334C86.1612 61.9048 82.9583 59.8099 80.2603 57.1687C77.5623 54.5275 75.4219 51.3919 73.9615 47.9408C72.5011 44.4897 71.7492 40.7907 71.7487 37.0551Z" fill="#2C2B2D"/>
<path d="M49.1685 240.178V316.318H39.3138V240.178C39.3138 238.898 39.8329 237.671 40.757 236.766C41.681 235.862 42.9343 235.353 44.2412 235.353C45.548 235.353 46.8013 235.862 47.7253 236.766C48.6494 237.671 49.1685 238.898 49.1685 240.178ZM207.232 243.189V316.318H197.378V243.189C197.378 241.909 197.897 240.682 198.821 239.777C199.745 238.872 200.998 238.364 202.305 238.364C203.612 238.364 204.865 238.872 205.789 239.777C206.713 240.682 207.232 241.909 207.232 243.189Z" fill="#B72732"/>
</svg>
