<svg width="293" height="292" viewBox="0 0 293 292" fill="none" xmlns="http://www.w3.org/2000/svg">
<path d="M292.564 274.915C292.564 283.842 285.282 291.086 276.31 291.086H16.2537C7.28171 291.086 0.00012207 283.842 0.00012207 274.915V121.286C0.00012207 112.359 7.28171 105.115 16.2537 105.115H276.31C285.282 105.115 292.564 112.359 292.564 121.286V274.915Z" fill="#FFCC4D"/>
<path d="M276.31 105.114H16.2535C7.28159 105.114 0 112.359 0 121.286H292.564C292.564 112.359 285.282 105.114 276.31 105.114Z" fill="#6D6E71"/>
<path d="M276.31 226.401H16.2535V194.058H276.31V226.401Z" fill="#3B88C3"/>
<path d="M276.31 177.886H16.2535V145.543H276.31V177.886Z" fill="#3B88C3"/>
<path d="M276.31 274.915H16.2535V242.572H276.31V274.915Z" fill="#3B88C3"/>
<path d="M243.803 283H227.55V137.457H243.803V283Z" fill="#FFCC4D"/>
<path d="M178.789 0.00012207H48.7606C39.7887 0.00012207 32.5071 7.24493 32.5071 16.1716V291.086H195.043V16.1716C195.043 7.24493 187.761 0.00012207 178.789 0.00012207Z" fill="#FFE8B6"/>
<path d="M178.789 -6.86646e-05H48.7606C39.7887 -6.86646e-05 32.5071 7.24474 32.5071 16.1714H195.043C195.043 7.24474 187.761 -6.86646e-05 178.789 -6.86646e-05Z" fill="#808285"/>
<path d="M178.789 177.886H48.7606V145.543H178.789V177.886Z" fill="#55ACEE"/>
<path d="M178.789 226.401H48.7606V194.058H178.789V226.401Z" fill="#55ACEE"/>
<path d="M178.789 274.915H48.7606V242.572H178.789V274.915Z" fill="#55ACEE"/>
<path d="M97.5213 291.086H81.2678V56.6003H97.5213V291.086Z" fill="#FFE8B6"/>
<path d="M146.282 291.086H130.028V56.6003H146.282V291.086Z" fill="#FFE8B6"/>
<path d="M130.028 291.086H97.5212V242.572H130.028V291.086Z" fill="#226699"/>
<path d="M162.535 72.7715C162.535 99.5595 140.699 121.286 113.775 121.286C86.8508 121.286 65.0142 99.5595 65.0142 72.7715C65.0142 45.9835 86.8508 24.2571 113.775 24.2571C140.699 24.2571 162.535 45.9835 162.535 72.7715Z" fill="#A7A9AC"/>
<path d="M146.282 72.7716C146.282 90.633 131.727 105.115 113.775 105.115C95.8228 105.115 81.2678 90.633 81.2678 72.7716C81.2678 54.9102 95.8228 40.4287 113.775 40.4287C131.727 40.4287 146.282 54.9102 146.282 72.7716Z" fill="#E6E7E8"/>
<path d="M138.155 80.8572H113.775C109.289 80.8572 105.648 77.2348 105.648 72.7714V32.3428C105.648 27.8795 109.289 24.2571 113.775 24.2571C118.261 24.2571 121.901 27.8795 121.901 32.3428V64.6857H138.155C142.641 64.6857 146.282 68.3081 146.282 72.7714C146.282 77.2348 142.641 80.8572 138.155 80.8572Z" fill="#A0041E"/>
</svg>
