<svg width="60" height="60" viewBox="0 0 60 60" fill="none" xmlns="http://www.w3.org/2000/svg">
<path d="M49.067 10.2582C48.6926 10.0226 48.24 9.94538 47.8086 10.0435C47.3773 10.1417 47.0026 10.4071 46.767 10.7816C46.5314 11.156 46.4542 11.6086 46.5523 12.04C46.6505 12.4713 46.9159 12.846 47.2903 13.0816C50.1633 14.8716 52.5322 17.3649 54.173 20.3257C55.8138 23.2864 56.6722 26.6168 56.6671 30.0018C56.6728 33.3874 55.8147 36.7184 54.1738 39.6798C52.533 42.6412 50.1638 45.1351 47.2903 46.9254C46.923 47.164 46.6645 47.5376 46.5705 47.9654C46.4765 48.3932 46.5547 48.8408 46.7882 49.2114C47.0217 49.582 47.3917 49.8458 47.8181 49.9457C48.2446 50.0457 48.6932 49.9737 49.067 49.7454C55.9105 45.4354 60.0005 38.0553 60.0005 30.0018C60.0005 21.9484 55.9105 14.5683 49.067 10.2582Z" fill="white"/>
<path d="M42.6166 22.0003C42.4408 21.8694 42.241 21.7744 42.0285 21.7207C41.8161 21.6671 41.5951 21.6558 41.3783 21.6875C40.9404 21.7516 40.5459 21.987 40.2815 22.3419C40.0172 22.6969 39.9047 23.1423 39.9688 23.5802C40.0328 24.0181 40.2682 24.4126 40.6232 24.677C41.4627 25.2888 42.1458 26.0904 42.6167 27.0164C43.0877 27.9424 43.3332 28.9665 43.3332 30.0054C43.3332 31.0442 43.0877 32.0684 42.6167 32.9943C42.1458 33.9203 41.4627 34.7219 40.6232 35.3338C40.2687 35.5981 40.0337 35.9925 39.9699 36.4301C39.9062 36.8676 40.0189 37.3126 40.2832 37.6671C40.5475 38.0217 40.9419 38.2566 41.3795 38.3204C41.817 38.3842 42.262 38.2715 42.6166 38.0072C45.1899 36.0938 46.6666 33.1738 46.6666 30.0037C46.6666 26.8337 45.1899 23.9136 42.6166 22.0003Z" fill="white"/>
<path d="M32.3266 0.139463C32.0272 0.0101828 31.6964 -0.0284065 31.3753 0.028475C31.0541 0.0853565 30.7567 0.23521 30.5199 0.459468L13.353 16.6697H1.6662C1.22417 16.6697 0.800239 16.8453 0.487674 17.1578C0.175109 17.4704 -0.000488281 17.8943 -0.000488281 18.3364V41.67C-0.000488281 42.1121 0.175109 42.536 0.487674 42.8486C0.800239 43.1611 1.22417 43.3367 1.6662 43.3367H13.3564L30.5233 59.5469C30.7599 59.7701 31.0567 59.9191 31.3769 59.9756C31.6972 60.0321 32.0271 59.9937 32.3258 59.8651C32.6245 59.7364 32.8791 59.5232 33.0581 59.2517C33.2371 58.9801 33.3328 58.6622 33.3333 58.3369V1.66948C33.3332 1.34402 33.2379 1.0257 33.059 0.753806C32.8801 0.481913 32.6255 0.268347 32.3266 0.139463Z" fill="white"/>
<path d="M30 54.4701L15.1665 40.4599C14.8568 40.1666 14.4464 40.0031 14.0198 40.0033H3.33301V20.003H14.0198C14.4464 20.0031 14.8568 19.8397 15.1665 19.5463L30 5.53613V54.4701Z" fill="white"/>
<path opacity="0.1" d="M3.33301 28.3359V40.0028H14.0198C14.4464 40.0026 14.8568 40.1661 15.1665 40.4594L30 54.4696V28.3359H3.33301Z" fill="white"/>
<path d="M49.0668 10.259C48.6924 10.0234 48.2398 9.9462 47.8084 10.0443C47.3771 10.1425 47.0024 10.408 46.7668 10.7824C46.5312 11.1568 46.454 11.6094 46.5521 12.0408C46.6503 12.4721 46.9158 12.8468 47.2902 13.0824C50.1632 14.8724 52.5321 17.3657 54.1728 20.3265C55.8136 23.2873 56.6721 26.6176 56.667 30.0026C56.6726 33.3882 55.8145 36.7193 54.1737 39.6806C52.5328 42.642 50.1636 45.1359 47.2902 46.9262C46.9229 47.1648 46.6643 47.5384 46.5703 47.9663C46.4763 48.3941 46.5546 48.8417 46.788 49.2122C47.0215 49.5828 47.3915 49.8466 47.8179 49.9465C48.2444 50.0465 48.693 49.9745 49.0668 49.7462C55.9103 45.4362 60.0003 38.0561 60.0003 30.0026C60.0003 21.9492 55.9103 14.5691 49.0668 10.259ZM42.6168 21.9992C42.441 21.8683 42.2412 21.7733 42.0287 21.7197C41.8163 21.666 41.5953 21.6547 41.3785 21.6864C40.9406 21.7505 40.5461 21.9859 40.2817 22.3409C40.0174 22.6958 39.9049 23.1412 39.969 23.5791C40.033 24.017 40.2684 24.4116 40.6234 24.6759C41.4629 25.2878 42.146 26.0894 42.6169 27.0153C43.0879 27.9413 43.3334 28.9654 43.3334 30.0043C43.3334 31.0431 43.0879 32.0673 42.6169 32.9933C42.146 33.9192 41.4629 34.7208 40.6234 35.3327C40.2689 35.597 40.0339 35.9914 39.9701 36.429C39.9064 36.8666 40.0191 37.3116 40.2834 37.6661C40.5477 38.0206 40.9421 38.2556 41.3797 38.3193C41.8173 38.3831 42.2622 38.2704 42.6168 38.0061C45.1901 36.0927 46.6668 33.1727 46.6668 30.0026C46.6668 26.8326 45.1901 23.9125 42.6168 21.9992ZM32.3266 0.135556C32.0272 0.00627655 31.6964 -0.0323128 31.3753 0.0245687C31.0541 0.0814503 30.7567 0.231303 30.5199 0.455561L13.353 16.6691H1.6662C1.22417 16.6691 0.800239 16.8447 0.487674 17.1573C0.175109 17.4698 -0.000488281 17.8938 -0.000488281 18.3358V41.6695C-0.000488281 42.1115 0.175109 42.5354 0.487674 42.848C0.800239 43.1605 1.22417 43.3361 1.6662 43.3361H13.3564L30.5233 59.5464C30.7599 59.7695 31.0567 59.9185 31.3769 59.975C31.6972 60.0315 32.0271 59.9931 32.3258 59.8645C32.6245 59.7359 32.8791 59.5226 33.0581 59.2511C33.2371 58.9796 33.3328 58.6616 33.3333 58.3363V1.66891C33.3332 1.34345 33.2378 1.02513 33.059 0.753233C32.8801 0.48134 32.6255 0.267774 32.3266 0.13889V0.135556Z" fill="url(#paint0_linear)"/>
<defs>
<linearGradient id="paint0_linear" x1="1.04458" y1="15.7234" x2="56.9273" y2="41.782" gradientUnits="userSpaceOnUse">
<stop stop-color="white" stop-opacity="0.2"/>
<stop offset="1" stop-color="white" stop-opacity="0"/>
</linearGradient>
</defs>
</svg>
